<?xml version="1.0" standalone="no"?>
<!DOCTYPE svg PUBLIC "-//W3C//DTD SVG 1.1//EN" "http://www.w3.org/Graphics/SVG/1.1/DTD/svg11.dtd" >
<svg>
<metadata>
Created by FontForge 20120731 at Tue May 29 13:57:00 2018
 By www
Copyright (c) 2013 by Miguel &#38; Daniel Hernndez. All rights reserved.
</metadata>
<defs>
<font id="ArquitectaW00-Medium" horiz-adv-x="424" >
  <font-face 
    font-family="ArquitectaW00-Medium"
    font-weight="500"
    font-stretch="normal"
    units-per-em="1000"
    panose-1="1 0 0 0 0 0 0 0 0 0"
    ascent="800"
    descent="-200"
    x-height="346"
    cap-height="600"
    bbox="-165 -244 1126 875"
    underline-thickness="50"
    underline-position="-125"
    unicode-range="U+0020-FB02"
  />
<missing-glyph horiz-adv-x="554" 
d="M454 600v-600h-354v600h354zM421 59v482l-126 -241zM133 540v-479l125 239zM153 29h247l-124 236zM276 336l123 235h-246z" />
    <glyph glyph-name=".notdef" horiz-adv-x="554" 
d="M454 600v-600h-354v600h354zM421 59v482l-126 -241zM133 540v-479l125 239zM153 29h247l-124 236zM276 336l123 235h-246z" />
    <glyph glyph-name=".null" horiz-adv-x="0" 
 />
    <glyph glyph-name="nonmarkingreturn" horiz-adv-x="333" 
 />
    <glyph glyph-name="space" unicode=" " horiz-adv-x="196" 
 />
    <glyph glyph-name="exclam" unicode="!" horiz-adv-x="242" 
d="M169 563l-20 -388h-57l-22 388v37h99v-37zM66 48q0 23 16 39t39 16t39.5 -16t16.5 -39t-16.5 -39.5t-39.5 -16.5t-39 16.5t-16 39.5z" />
    <glyph glyph-name="quotedbl" unicode="&#x22;" horiz-adv-x="310" 
d="M100 463h-52v15l18 194h75v-15zM233 463h-52v15l19 194h73v-15z" />
    <glyph glyph-name="numbersign" unicode="#" horiz-adv-x="648" 
d="M491 424h123l-12 -51h-122l-37 -164h118l-11 -52h-119l-35 -157h-55l35 157h-165l-35 -157h-55l35 157h-122l11 52h123l37 164h-118l10 51h119l36 159h55l-36 -159h165l36 159h55zM223 209h165l37 164h-165z" />
    <glyph glyph-name="dollar" unicode="$" horiz-adv-x="540" 
d="M89 121q20 -17 47 -29q23 -11 56.5 -20t76.5 -9q76 0 110 26.5t34 68.5q0 19 -7.5 34t-25.5 28t-48.5 25t-76.5 25q-54 15 -93.5 32t-65 37.5t-38 47t-12.5 61.5q0 72 51.5 115t145.5 49v82h63v-82q47 -3 80.5 -12.5t56.5 -19.5q26 -11 44 -25l-45 -68q-18 13 -44 24
q-22 9 -53.5 17t-73.5 8q-61 0 -99.5 -22.5t-38.5 -64.5q0 -17 7.5 -30t26 -25t49 -23t75.5 -23q59 -16 99 -34.5t65 -41t35.5 -50t10.5 -61.5t-11.5 -64t-35.5 -53t-60.5 -37.5t-87.5 -18.5v-82h-63v81q-51 3 -88.5 14.5t-62.5 24.5q-29 15 -48 33z" />
    <glyph glyph-name="percent" unicode="%" horiz-adv-x="672" 
d="M172 613q32 0 57 -12t42.5 -33t26.5 -48t9 -57t-9 -57t-26.5 -48t-42.5 -33.5t-57 -12.5q-33 0 -58.5 12.5t-42.5 33.5t-26 48t-9 57t9 57t26 48t42.5 33t58.5 12zM172 553q-34 0 -50.5 -25t-16.5 -65q0 -39 16.5 -64.5t50.5 -25.5q32 0 49 25.5t17 64.5q0 40 -17 65
t-49 25zM595 565l-469 -564l-50 41l468 564zM500 293q33 0 58 -12t42.5 -33t26.5 -48.5t9 -57.5q0 -29 -9 -56t-26.5 -48t-42.5 -33.5t-58 -12.5q-32 0 -57.5 12.5t-43 33.5t-26.5 48t-9 56q0 30 9 57.5t26.5 48.5t43 33t57.5 12zM500 233q-32 0 -49.5 -25t-17.5 -66
q0 -38 17.5 -63.5t49.5 -25.5q33 0 49.5 25.5t16.5 63.5q0 41 -16.5 66t-49.5 25z" />
    <glyph glyph-name="ampersand" unicode="&#x26;" horiz-adv-x="626" 
d="M54 161q0 33 11 58.5t29.5 45t43 34.5t50.5 28l-8 8q-28 27 -46 60t-18 75q0 31 11.5 57.5t33 45.5t51.5 29.5t67 10.5q40 0 71.5 -11.5t53 -30.5t32.5 -45t11 -54q0 -33 -11.5 -58t-31 -44.5t-44 -34.5t-51.5 -28l153 -147q17 31 24.5 65.5t7.5 68.5v21h80v-20
q0 -48 -13.5 -96.5t-42.5 -91.5l103 -99v-8h-95l-55 53q-35 -30 -80.5 -48t-105.5 -18q-56 0 -99.5 13t-72.5 36t-44 55t-15 70zM285 59q43 0 76 12t57 33l-176 170q-41 -21 -69.5 -46t-28.5 -64q0 -45 38 -75t103 -30zM195 463q0 -33 18 -58t42 -48q23 10 43.5 20.5
t36 23.5t24.5 28.5t9 35.5q0 31 -19.5 55t-68.5 24q-38 0 -61.5 -21.5t-23.5 -59.5z" />
    <glyph glyph-name="quotesingle" unicode="'" horiz-adv-x="177" 
d="M100 463h-52v15l18 194h75v-15z" />
    <glyph glyph-name="parenleft" unicode="(" horiz-adv-x="327" 
d="M316 621q-19 -12 -52.5 -38.5t-66.5 -70.5t-57 -107t-24 -147q0 -85 24 -148t57 -107t66.5 -70.5t52.5 -38.5l-41 -58q-16 8 -40 25t-51 42t-54.5 59.5t-49.5 78.5t-35.5 98t-13.5 119t13.5 119t35.5 98t49.5 78t54.5 59t51 41.5t40 25.5l41 -58v0z" />
    <glyph glyph-name="parenright" unicode=")" horiz-adv-x="327" 
d="M53 679q15 -8 39.5 -25t51.5 -42t54.5 -59t49 -78t35.5 -98t14 -119t-14 -119t-35.5 -98t-49 -78.5t-54.5 -59.5t-51.5 -42t-39.5 -25l-42 58q19 12 53 38.5t67 70.5t57 107t24 148q0 84 -24 147t-57 107t-67 70.5t-53 38.5z" />
    <glyph glyph-name="asterisk" unicode="*" horiz-adv-x="411" 
d="M224 623h-36l-13 77v29h63v-29zM258 572l-10 33l70 38l26 9l19 -61l-27 -8zM75 583l-27 8l19 61l27 -9l70 -38l-11 -33zM162 546l28 -20l-34 -73l-17 -23l-50 37l16 24zM307 491l17 -24l-52 -37l-16 23l-35 73l29 19z" />
    <glyph glyph-name="plus" unicode="+" horiz-adv-x="484" 
d="M278 333h161v-67h-161v-156h-70v156h-163v67h163v161h70v-161z" />
    <glyph glyph-name="comma" unicode="," horiz-adv-x="156" 
d="M25 45q0 23 14.5 38t37.5 15t38.5 -15.5t15.5 -38.5t-5 -37t-14 -31l-40 -71h-56l36 64q3 5 6 9t5 6l5 5v4q-19 3 -31 17.5t-12 34.5z" />
    <glyph glyph-name="hyphen" unicode="-" horiz-adv-x="389" 
d="M51 327h287v-68h-287v68z" />
    <glyph glyph-name="period" unicode="." horiz-adv-x="156" 
d="M25 45q0 23 15 38.5t38 15.5t38 -15.5t15 -38.5t-15 -38t-38 -15t-38 15t-15 38z" />
    <glyph glyph-name="slash" unicode="/" horiz-adv-x="361" 
d="M111 -176h-82l221 879h82z" />
    <glyph glyph-name="zero" unicode="0" horiz-adv-x="622" 
d="M311 -14q-64 0 -113.5 25t-83.5 67.5t-51.5 99.5t-17.5 121q0 65 17.5 122t51.5 100t83.5 67.5t113.5 24.5t113.5 -24.5t83.5 -67.5t51.5 -100t17.5 -122q0 -64 -17.5 -121t-51.5 -99.5t-83.5 -67.5t-113.5 -25zM311 65q45 0 79 18.5t57 50t34.5 74t11.5 91.5t-11.5 92
t-34.5 75t-57 50.5t-79 18.5t-79 -18.5t-57 -50.5t-34.5 -75t-11.5 -92t11.5 -91.5t34.5 -74t57 -50t79 -18.5z" />
    <glyph glyph-name="one" unicode="1" horiz-adv-x="326" 
d="M21 600h214v-600h-82v525h-132v75z" />
    <glyph glyph-name="two" unicode="2" horiz-adv-x="511" 
d="M43 18l260 289q34 37 48 61.5t14 53.5q0 24 -9 44.5t-26 35.5t-41 23.5t-54 8.5q-34 0 -62 -10t-48 -23t-32 -24t-13 -13l-46 66q23 23 54 41q26 16 63.5 29t86.5 13q54 0 94 -14t67 -39t40.5 -58t13.5 -72q0 -42 -16 -76t-51 -73l-185 -206h267v-75h-425v18z" />
    <glyph glyph-name="three" unicode="3" horiz-adv-x="517" 
d="M174 290v24l153 211h-266v75h399v-18l-165 -227q84 -4 131 -52.5t47 -129.5q0 -39 -15 -73t-43.5 -59.5t-70.5 -40t-96 -14.5q-50 0 -89.5 12.5t-67 28t-43 28.5t-16.5 14q10 14 21 32t20 32q22 -20 49 -35q23 -13 54.5 -23.5t69.5 -10.5q67 0 104.5 31.5t37.5 79.5
q0 53 -34.5 84t-95.5 31h-84z" />
    <glyph glyph-name="four" unicode="4" horiz-adv-x="549" 
d="M25 199l353 401h62v-386h71v-75h-72v-139h-82v139h-332v60zM135 214h222v255l-205 -236q-2 -2 -5.5 -3.5t-5.5 -3.5q-4 -2 -6 -4v-8z" />
    <glyph glyph-name="five" unicode="5" horiz-adv-x="511" 
d="M170 525l-5 -165q17 3 36 5t42 2q59 0 102 -13.5t71.5 -38t42 -58.5t13.5 -75q0 -90 -57.5 -143t-167.5 -53q-50 0 -89 13t-68 29q-33 18 -59 42l43 64q23 -20 50 -35q23 -14 54.5 -24.5t68.5 -10.5q65 0 102.5 31.5t37.5 88.5q0 50 -39 80t-113 30q-67 0 -102.5 -10.5
t-36.5 -11.5l-14 11l10 317h349v-75h-271z" />
    <glyph glyph-name="six" unicode="6" horiz-adv-x="514" 
d="M46 186q1 50 16 92t40 82l150 240h101l-136 -213q-5 -7 -9.5 -12t-8.5 -9t-9 -8v-6q17 10 37.5 15.5t43.5 5.5q49 0 89 -14t68 -39t43.5 -60t15.5 -76q0 -46 -17 -83t-46 -62.5t-69.5 -39t-86.5 -13.5q-49 0 -90 14t-70 40t-45.5 63t-16.5 83zM268 299q-29 0 -53.5 -8
t-43 -23t-29 -36.5t-10.5 -49.5q0 -54 38.5 -87t97.5 -33q61 0 97 34t36 86q0 51 -35 84t-98 33z" />
    <glyph glyph-name="seven" unicode="7" horiz-adv-x="462" 
d="M37 600h418v-20l-274 -580h-100l254 525h-298v75z" />
    <glyph glyph-name="eight" unicode="8" horiz-adv-x="541" 
d="M271 -14q-53 0 -94.5 14.5t-70 39t-43.5 57t-15 68.5q0 51 26 90t73 62q-37 22 -56.5 56t-19.5 75q0 34 13.5 64.5t39.5 52.5t63 35t84 13q46 0 83 -13t63 -35t39.5 -52.5t13.5 -64.5q0 -41 -19.5 -75t-56.5 -56q46 -23 72.5 -62t26.5 -90q0 -36 -15 -68.5t-43.5 -57
t-69.5 -39t-94 -14.5zM271 62q31 0 56.5 8.5t43.5 23t27.5 34t9.5 40.5q0 51 -38.5 82.5t-98.5 31.5q-30 0 -55.5 -8.5t-43.5 -23.5t-28.5 -36t-10.5 -46q0 -21 9.5 -40.5t27.5 -34t43.5 -23t57.5 -8.5zM271 346q54 0 84.5 28t30.5 71q0 38 -30.5 65t-84.5 27t-85 -27
t-31 -65q0 -43 31 -71t85 -28z" />
    <glyph glyph-name="nine" unicode="9" horiz-adv-x="515" 
d="M469 413q0 -51 -15 -93t-40 -81l-150 -239h-102l135 212q4 7 9 12l9 9t9 8v4q-35 -20 -80 -20q-49 0 -89 14t-68 39.5t-43.5 60.5t-15.5 76q0 46 17 83t46 62.5t69 39t86 13.5q49 0 90.5 -14t70.5 -40t45.5 -63t16.5 -83zM248 301q27 0 51 7.5t43 21.5t30 35.5t11 50.5
q0 26 -10.5 48t-28.5 38t-43 25t-53 9q-61 0 -97 -33.5t-36 -85.5q0 -51 35 -83.5t98 -32.5z" />
    <glyph glyph-name="colon" unicode=":" horiz-adv-x="203" 
d="M47 297q0 22 15.5 37.5t38.5 15.5t38 -15.5t15 -37.5q0 -23 -15 -38.5t-38 -15.5t-38.5 15.5t-15.5 38.5zM47 45q0 23 15.5 38.5t38.5 15.5t38 -15.5t15 -38.5t-15 -38t-38 -15t-38.5 15t-15.5 38z" />
    <glyph glyph-name="semicolon" unicode=";" horiz-adv-x="220" 
d="M58 45q0 23 15.5 38t38.5 15t38.5 -15.5t15.5 -38.5q0 -20 -5.5 -36t-14.5 -32l-40 -71h-55l36 64q5 10 10 15l5 5v4q-20 3 -32 17.5t-12 34.5zM59 297q0 22 15 37.5t38 15.5t38.5 -15.5t15.5 -37.5q0 -23 -15.5 -38.5t-38.5 -15.5t-38 15.5t-15 38.5z" />
    <glyph glyph-name="less" unicode="&#x3c;" horiz-adv-x="378" 
d="M36 276v23l241 232l48 -50l-202 -194l202 -193l-48 -50z" />
    <glyph glyph-name="equal" unicode="=" horiz-adv-x="528" 
d="M80 422h368v-68h-368v68zM80 231h368v-67h-368v67z" />
    <glyph glyph-name="greater" unicode="&#x3e;" horiz-adv-x="378" 
d="M101 44l-48 50l202 193l-202 194l48 50l241 -232v-23z" />
    <glyph glyph-name="question" unicode="?" horiz-adv-x="384" 
d="M35 579q16 9 38 17q19 6 46.5 11.5t62.5 5.5q38 0 67.5 -11t50 -29.5t31 -44t10.5 -54.5q0 -34 -10 -59t-24.5 -45.5t-32.5 -37.5t-34 -35.5t-28 -40.5t-15 -52l-2 -32h-56v39q0 46 18.5 76.5t41 56.5t41 52t18.5 63q0 38 -25.5 61.5t-67.5 23.5q-24 0 -43 -5t-32 -10
q-15 -6 -26 -14zM116 45q0 23 15 38.5t38 15.5t38.5 -15.5t15.5 -38.5t-15.5 -38t-38.5 -15t-38 15t-15 38z" />
    <glyph glyph-name="at" unicode="@" horiz-adv-x="914" 
d="M456 -244q-102 0 -180 34.5t-131 92.5t-80 135t-27 162q0 87 27.5 164.5t81 136t132 92.5t180.5 34q103 0 180 -33t128 -86t76 -119t25 -131q0 -56 -11.5 -102.5t-34.5 -79.5t-56.5 -51t-76.5 -18q-38 0 -61.5 11.5t-36.5 25.5q-15 16 -22 37h-6q-3 -6 -11 -17.5
t-23.5 -23t-40.5 -20t-61 -8.5q-37 0 -69 13t-55.5 36.5t-37 57t-13.5 74.5q0 42 13.5 76t37 57t55.5 35.5t69 12.5q31 0 53 -7t37.5 -16.5t25 -20.5t14.5 -19l13 55h55v-218q0 -35 16.5 -54t51.5 -19q51 0 79 47.5t28 125.5q0 64 -22.5 121t-66 100t-107 68t-145.5 25
q-80 0 -145 -27t-111.5 -75t-71.5 -114.5t-25 -144.5q0 -77 24.5 -143t70.5 -114t110.5 -75.5t144.5 -27.5q45 0 78.5 5.5t56.5 13.5q26 8 46 19l27 -58q-20 -13 -50 -23q-26 -8 -65 -15t-93 -7zM551 174q0 54 -31 83.5t-79 29.5q-47 0 -78 -31t-31 -82t31 -83t78 -32
q48 0 79 30.5t31 84.5z" />
    <glyph glyph-name="A" unicode="A" horiz-adv-x="611" 
d="M297 600h17l299 -600h-94l-49 98h-329l-49 -98h-93zM310 438h-10l-117 -257l-6 -10h257l-6 10z" />
    <glyph glyph-name="B" unicode="B" horiz-adv-x="635" 
d="M588 168q0 -42 -16.5 -73.5t-46 -52.5t-70.5 -31.5t-91 -10.5h-281v600h270q101 0 158 -41t57 -121q0 -48 -23.5 -80t-65.5 -47v-7q48 -14 78.5 -48.5t30.5 -87.5zM165 267v-192h202q28 0 52.5 6t43 18.5t29 31t10.5 42.5q0 45 -36.5 68.5t-90.5 25.5h-210zM482 432
q0 49 -34.5 71t-96.5 22h-186v-186h186q61 0 96 25t35 68z" />
    <glyph glyph-name="C" unicode="C" horiz-adv-x="589" 
d="M564 62q-21 -21 -51 -38q-26 -14 -65 -26t-93 -12q-71 0 -128.5 24.5t-99 67t-64 99.5t-22.5 122q0 66 22.5 123.5t64 99.5t99 66.5t128.5 24.5q54 0 93 -12t65 -26q30 -17 51 -38l-47 -64q-19 17 -44 31q-21 11 -50.5 21t-66.5 10q-51 0 -93.5 -18.5t-73 -50.5
t-47.5 -75t-17 -92t17 -91.5t47.5 -74.5t73 -50.5t93.5 -18.5q38 0 67.5 9.5t50.5 21.5q25 13 43 31z" />
    <glyph glyph-name="D" unicode="D" horiz-adv-x="660" 
d="M617 300q0 -68 -23 -123.5t-65 -94.5t-100.5 -60.5t-130.5 -21.5h-215v600h215q72 0 130.5 -21.5t100.5 -60.5t65 -94.5t23 -123.5zM165 525v-450h127q51 0 95.5 15t76.5 44t50.5 70.5t18.5 95.5t-18.5 95.5t-50.5 70.5t-76.5 44t-95.5 15h-127z" />
    <glyph glyph-name="E" unicode="E" horiz-adv-x="567" 
d="M481 260h-316v-185h364v-75h-446v600h446v-75h-364v-192h316v-73z" />
    <glyph glyph-name="F" unicode="F" horiz-adv-x="557" 
d="M83 600h446v-75h-364v-192h319v-73h-319v-260h-82v600z" />
    <glyph glyph-name="G" unicode="G" horiz-adv-x="673" 
d="M337 333h297v-46q0 -68 -19 -123.5t-55 -95t-88.5 -61t-119.5 -21.5q-72 0 -130 24.5t-98 67t-61.5 99.5t-21.5 122q0 66 22 123.5t63 99.5t99 66.5t130 24.5q58 0 99.5 -12.5t69.5 -26.5q32 -18 54 -39l-49 -63q-19 17 -45 31q-23 12 -55 22t-74 10q-53 0 -95.5 -18.5
t-72.5 -50.5t-46 -75t-16 -92t15.5 -91.5t44.5 -74.5t71 -50.5t95 -18.5q44 0 80 14t62 38.5t40.5 59t15.5 76.5v8h-212v73z" />
    <glyph glyph-name="H" unicode="H" horiz-adv-x="675" 
d="M593 0h-83v258h-345v-258h-82v600h82v-268h345v268h83v-600z" />
    <glyph glyph-name="I" unicode="I" horiz-adv-x="248" 
d="M165 0h-82v600h82v-600z" />
    <glyph glyph-name="J" unicode="J" horiz-adv-x="459" 
d="M61 100q14 -10 31 -17q14 -7 34 -12t43 -5q63 0 96.5 34t33.5 112v388h83v-405q0 -98 -51.5 -153.5t-154.5 -55.5q-37 0 -65 7t-47.5 16t-30 17t-11.5 9z" />
    <glyph glyph-name="K" unicode="K" horiz-adv-x="601" 
d="M165 280l321 320h100v-12l-239 -240l239 -336v-12h-97l-202 288l-122 -123v-165h-82v600h82v-320z" />
    <glyph glyph-name="L" unicode="L" horiz-adv-x="520" 
d="M83 0v600h82v-525h343v-75h-425z" />
    <glyph glyph-name="M" unicode="M" horiz-adv-x="757" 
d="M593 421l-203 -217h-22l-203 216v-420h-82v600h23l273 -288l274 288h22v-600h-82v421z" />
    <glyph glyph-name="N" unicode="N" horiz-adv-x="696" 
d="M614 0h-23l-426 431v-431h-82v600h23l425 -426v426h83v-600z" />
    <glyph glyph-name="O" unicode="O" horiz-adv-x="706" 
d="M352 -14q-71 0 -128.5 24.5t-98 67t-62.5 99.5t-22 122q0 66 22 123.5t62.5 99.5t98 66.5t128.5 24.5q72 0 130 -24.5t98.5 -66.5t62.5 -99.5t22 -123.5q0 -65 -22 -122t-62.5 -99.5t-98.5 -67t-130 -24.5zM352 65q52 0 94.5 18.5t72.5 50t46 74t16 91.5t-16 92t-46 75
t-72.5 50.5t-94.5 18.5t-94 -18.5t-71.5 -50.5t-45.5 -75t-16 -92t16 -91.5t45.5 -74t71.5 -50t94 -18.5z" />
    <glyph glyph-name="P" unicode="P" horiz-adv-x="604" 
d="M83 600h252q113 0 177 -51.5t64 -150.5q0 -51 -17.5 -90t-50 -65.5t-78 -40t-100.5 -13.5h-165v-189h-82v600zM491 396q0 66 -43.5 97.5t-115.5 31.5h-167v-262h167q73 0 116 31.5t43 101.5z" />
    <glyph glyph-name="Q" unicode="Q" horiz-adv-x="706" 
d="M352 -14q-71 0 -128.5 24.5t-98 67t-62.5 99.5t-22 122q0 66 22 123.5t62.5 99.5t98 66.5t128.5 24.5q72 0 130 -24.5t98.5 -66.5t62.5 -99.5t22 -123.5q0 -81 -33 -148.5t-94 -109.5l56 -82v-13h-90l-39 58q-26 -8 -54 -13t-59 -5zM330 220h87l75 -111q42 32 65.5 81
t23.5 109q0 49 -16 92t-46 75t-72.5 50.5t-94.5 18.5t-94 -18.5t-71.5 -50.5t-45.5 -75t-16 -92t16 -91.5t45.5 -74t71.5 -50t94 -18.5q18 0 34.5 2t32.5 6l-89 135v12z" />
    <glyph glyph-name="R" unicode="R" horiz-adv-x="631" 
d="M334 600q113 0 177.5 -51.5t64.5 -150.5q0 -72 -36.5 -119t-98.5 -68v-4l155 -191v-16h-91l-157 195h-183v-195h-82v600h251zM490 396q0 66 -43 97.5t-115 31.5h-167v-256h175q66 0 108 30.5t42 96.5z" />
    <glyph glyph-name="S" unicode="S" horiz-adv-x="537" 
d="M87 121q20 -17 47 -29q23 -11 56.5 -20t76.5 -9q76 0 110 26.5t34 68.5q0 19 -7.5 34t-25.5 28t-48.5 25t-76.5 25q-54 15 -93.5 32t-65 37.5t-38 47t-12.5 61.5q0 78 59.5 121.5t165.5 43.5q57 0 97.5 -9t66.5 -20q31 -13 52 -29l-45 -68q-18 13 -44 24q-22 9 -53.5 17
t-73.5 8q-61 0 -99.5 -22.5t-38.5 -64.5q0 -17 7.5 -30t26 -25t49 -23t75.5 -23q59 -16 99 -34.5t65 -41t35.5 -50t10.5 -61.5q0 -37 -13.5 -69t-41.5 -55.5t-72 -37t-104 -13.5q-59 0 -101 11t-70 25q-33 16 -55 37z" />
    <glyph glyph-name="T" unicode="T" horiz-adv-x="526" 
d="M15 600h497v-75h-208v-525h-82v525h-207v75z" />
    <glyph glyph-name="U" unicode="U" horiz-adv-x="659" 
d="M330 -14q-60 0 -107.5 19.5t-80.5 55t-50.5 84t-17.5 107.5v348h82v-348q0 -40 11 -74.5t32.5 -59.5t54 -39t76.5 -14q43 0 75.5 14t54.5 39t32.5 59.5t10.5 74.5v348h83v-348q0 -59 -17 -107.5t-50 -84t-80.5 -55t-108.5 -19.5z" />
    <glyph glyph-name="V" unicode="V" horiz-adv-x="611" 
d="M310 157l60 136l149 307h92l-297 -600h-18l-297 600h92l152 -307l58 -136h9z" />
    <glyph glyph-name="W" unicode="W" horiz-adv-x="817" 
d="M384 600h49l117 -397l14 -52h6l15 55l135 394h87l-217 -600h-56l-117 394l-8 25h-5l-7 -25l-119 -394h-53l-217 600h86l137 -394l14 -55h6l15 52z" />
    <glyph glyph-name="X" unicode="X" horiz-adv-x="561" 
d="M341 308l207 -308h-100l-144 216l-23 46q0 -1 -4 -8t-8.5 -15t-8.5 -15t-4 -8l-143 -216h-98l204 308l-197 292h99l139 -207l21 -43l22 43q1 2 11.5 17.5t25.5 38l32 48l32 48t25.5 38t11.5 17.5h99z" />
    <glyph glyph-name="Y" unicode="Y" horiz-adv-x="550" 
d="M452 600h95l-231 -370v-230h-83v229l-230 371h96l157 -254l17 -37h6l18 37z" />
    <glyph glyph-name="Z" unicode="Z" horiz-adv-x="543" 
d="M30 21l352 504h-340v75h473v-21l-345 -504h339v-75h-479v21z" />
    <glyph glyph-name="bracketleft" unicode="[" horiz-adv-x="324" 
d="M74 674h227v-68h-149v-696h149v-68h-227v832z" />
    <glyph glyph-name="backslash" unicode="\" horiz-adv-x="361" 
d="M29 703h82l221 -879h-82z" />
    <glyph glyph-name="bracketright" unicode="]" horiz-adv-x="324" 
d="M23 -90h149v696h-149v68h227v-832h-227v68z" />
    <glyph glyph-name="underscore" unicode="_" horiz-adv-x="495" 
d="M44 -20h403v-68h-403v68z" />
    <glyph glyph-name="grave" unicode="`" horiz-adv-x="254" 
d="M53 562v15h97l42 -143v-15h-52z" />
    <glyph glyph-name="a" unicode="a" 
d="M28 103q0 45 38 75.5t117 30.5q47 0 71.5 -10t33.5 -17h6v17q0 43 -25.5 65.5t-83.5 22.5q-23 0 -41.5 -4.5t-31.5 -9.5q-15 -6 -27 -13l-27 61q14 9 35 16q18 6 44.5 11.5t62.5 5.5q46 0 79 -12t54 -34t30.5 -51.5t9.5 -65.5v-191h-58l-8 40h-5q-4 -5 -12.5 -13.5
t-23.5 -16t-37.5 -13t-54.5 -5.5q-74 0 -110 32.5t-36 78.5zM108 105q0 -23 20.5 -39.5t63.5 -16.5q22 0 40.5 6t31.5 14.5t20.5 18.5t7.5 19q0 23 -27.5 38t-72.5 15q-41 0 -62.5 -14.5t-21.5 -40.5z" />
    <glyph glyph-name="b" unicode="b" horiz-adv-x="468" 
d="M57 668h82v-366h3q8 15 25 26q14 10 37.5 18t58.5 8q36 0 67 -13t54.5 -37t36.5 -57.5t13 -73.5q0 -42 -13.5 -75.5t-37 -57t-55 -36t-68.5 -12.5q-38 0 -63.5 9.5t-40.5 21.5q-18 13 -28 31h-3l-11 -54h-57v668zM134 173q0 -53 31.5 -83t78.5 -30t77 31.5t30 81.5
q0 51 -30 82t-77 31t-78.5 -30t-31.5 -83z" />
    <glyph glyph-name="c" unicode="c" horiz-adv-x="363" 
d="M225 -8q-42 0 -77.5 13.5t-61 37.5t-39.5 57t-14 72q0 40 14 73.5t39.5 57.5t61 37.5t77.5 13.5q28 0 49.5 -5t35.5 -10q17 -7 29 -15l-24 -61q-10 6 -22 11q-11 5 -26.5 8.5t-34.5 3.5q-49 0 -83 -30.5t-34 -83.5q0 -52 34 -82t83 -30q19 0 34.5 3t26.5 8q12 5 22 12
l22 -61q-11 -9 -28 -15q-14 -6 -35 -10.5t-49 -4.5z" />
    <glyph glyph-name="d" unicode="d" horiz-adv-x="468" 
d="M329 306v362h82v-668h-56l-12 51h-4q-10 -17 -28 -30q-15 -11 -40.5 -20t-62.5 -9t-69 12.5t-55.5 36t-37 57t-13.5 75.5q0 40 13 73.5t36.5 57.5t55 37t67.5 13q35 0 58 -7.5t37 -16.5q17 -11 26 -24h3zM334 173q0 53 -32 83t-78 30q-47 0 -77.5 -31t-30.5 -82
q0 -50 30.5 -81.5t77.5 -31.5q46 0 78 30t32 83z" />
    <glyph glyph-name="e" unicode="e" horiz-adv-x="416" 
d="M361 31q-14 -11 -33 -20q-17 -8 -41.5 -14t-56.5 -6q-45 0 -81.5 13.5t-62 37.5t-39.5 57.5t-14 72.5t13.5 72.5t37.5 58t57.5 38t74.5 13.5q40 0 72 -13t54.5 -36.5t34 -55.5t11.5 -69q0 -3 -0.5 -7t-0.5 -8v-9h-274q5 -51 38.5 -75.5t80.5 -24.5q24 0 43 4.5t32 9.5
q15 6 26 15zM215 290q-38 0 -64.5 -21t-35.5 -60h193q-5 35 -29.5 58t-63.5 23z" />
    <glyph glyph-name="f" unicode="f" horiz-adv-x="319" 
d="M178 282v-282h-81v282h-80v64h80v147q0 89 40 131t110 42q35 0 55.5 -8.5t22.5 -9.5l-21 -70q-7 3 -15 6q-7 2 -15 4t-16 2q-41 0 -60.5 -23t-19.5 -74v-147h122v-64h-122z" />
    <glyph glyph-name="g" unicode="g" horiz-adv-x="406" 
d="M211 -237q-94 0 -141.5 36t-47.5 91q0 31 15 56t49 41v5q-32 14 -45.5 33.5t-13.5 43.5q0 25 12.5 44t43.5 35q-24 30 -24 74q0 28 11 52.5t30 41.5t45.5 27t58.5 10q11 0 40.5 -1t61.5 -3q37 -2 81 -4v-58h-60v-5q6 -4 11 -13q4 -8 7.5 -20t3.5 -31q0 -24 -10 -46.5
t-29 -39.5t-46 -27t-60 -10q-43 0 -77 17q-28 -13 -28 -35q0 -10 5 -18t17.5 -13.5t34 -8.5t55.5 -3q99 0 144.5 -35.5t45.5 -96.5q0 -30 -12.5 -55t-36.5 -44t-59.5 -29.5t-81.5 -10.5zM211 -31q-57 0 -84 -21.5t-27 -50.5t27 -50.5t84 -21.5t83.5 21t26.5 51
q0 29 -26.5 50.5t-83.5 21.5zM204 291q-37 0 -57 -19.5t-20 -48.5t20 -48.5t57 -19.5t57 19.5t20 48.5t-20 48.5t-57 19.5z" />
    <glyph glyph-name="h" unicode="h" horiz-adv-x="459" 
d="M57 668h82v-354h3q17 16 43 28t69 12q72 0 112 -42t40 -113v-199h-81v188q0 43 -23 70.5t-68 27.5q-24 0 -41 -7.5t-29 -19t-18 -26t-7 -28.5v-205h-82v668z" />
    <glyph glyph-name="i" unicode="i" horiz-adv-x="198" 
d="M99 478q-21 0 -35.5 14.5t-14.5 35.5t14.5 36t35.5 15t36 -15t15 -36t-15 -35.5t-36 -14.5zM58 346h82v-346h-82v346z" />
    <glyph glyph-name="j" unicode="j" horiz-adv-x="195" 
d="M-18 -123q5 -3 10 -5t11 -3t13 -1q40 0 40 50v428h83v-431q0 -56 -24 -86t-80 -30q-16 0 -28.5 2.5t-20.5 5.5q-11 4 -18 9zM97 478q-21 0 -36 14.5t-15 35.5t15 36t36 15q22 0 36 -15t14 -36t-14 -35.5t-36 -14.5z" />
    <glyph glyph-name="k" unicode="k" horiz-adv-x="401" 
d="M374 346l-154 -169l176 -177h-109l-146 153h-3v-153h-82v668h82v-476h3l137 154h96z" />
    <glyph glyph-name="l" unicode="l" horiz-adv-x="198" 
d="M58 668h82v-668h-82v668z" />
    <glyph glyph-name="m" unicode="m" horiz-adv-x="726" 
d="M57 346h54l10 -49h4q21 28 51 42.5t76 14.5t79.5 -16.5t52.5 -45.5h4q17 27 49 44.5t83 17.5q73 0 113.5 -42t40.5 -113v-199h-82v188q0 42 -22.5 70t-67.5 28q-24 0 -42 -7.5t-30 -19t-18 -26t-6 -28.5v-205h-81v198q0 38 -23 63t-68 25q-24 0 -41.5 -7.5t-29.5 -19
t-18 -26t-6 -28.5v-205h-82v346z" />
    <glyph glyph-name="n" unicode="n" horiz-adv-x="457" 
d="M139 0h-82v346h54l10 -49h4q18 26 48.5 41.5t78.5 15.5q73 0 113.5 -42t40.5 -113v-199h-81v188q0 42 -23 70t-68 28q-25 0 -43 -8.5t-29.5 -21t-17 -28t-5.5 -29.5v-199z" />
    <glyph glyph-name="o" unicode="o" horiz-adv-x="446" 
d="M414 171q0 -41 -15 -74.5t-41 -56.5t-61 -35.5t-74 -12.5t-74 12.5t-60.5 35.5t-40.5 56.5t-15 74.5q0 42 15 75.5t40.5 57.5t60.5 37t74 13t74 -13t61 -37t41 -57.5t15 -75.5zM223 58q46 0 78.5 30t32.5 84t-32.5 85t-78.5 31t-78 -31t-32 -85t32 -84t78 -30z" />
    <glyph glyph-name="p" unicode="p" horiz-adv-x="468" 
d="M139 40v-232h-82v538h55l11 -49h6q11 16 29 28q16 11 40.5 20t61.5 9t68.5 -12.5t55 -36t37 -57t13.5 -75.5q0 -41 -13 -74t-36.5 -57t-54.5 -37t-67 -13q-35 0 -58.5 7.5t-37.5 16.5q-17 11 -25 24h-3zM134 173q0 -53 31.5 -83t78.5 -30t77 31t30 82q0 50 -30 81.5
t-77 31.5t-78.5 -30t-31.5 -83z" />
    <glyph glyph-name="q" unicode="q" horiz-adv-x="468" 
d="M411 -192h-82v236h-3q-9 -15 -25 -26q-14 -10 -37.5 -18t-58.5 -8q-36 0 -67.5 13t-55 37t-36.5 57t-13 74q0 42 13.5 75.5t37 57t55.5 36t69 12.5q38 0 63 -10t40 -22q18 -14 28 -31h4l12 55h56v-538zM334 173q0 53 -32 83t-78 30q-47 0 -77.5 -31.5t-30.5 -81.5
q0 -51 30.5 -82t77.5 -31q46 0 78 30t32 83z" />
    <glyph glyph-name="r" unicode="r" horiz-adv-x="297" 
d="M266 265q-5 2 -12 5q-6 2 -14.5 4t-19.5 2q-15 0 -29.5 -5.5t-26 -15t-18.5 -23.5t-7 -32v-200h-82v346h54l10 -49h4q11 17 35 33.5t66 16.5q17 0 30 -3t22 -6q10 -4 17 -9z" />
    <glyph glyph-name="s" unicode="s" horiz-adv-x="378" 
d="M60 89q17 -10 36 -17q17 -7 39.5 -12t48.5 -5q79 0 79 42q0 17 -16.5 26t-42 16t-54.5 13.5t-54.5 18.5t-42 30.5t-16.5 49.5q0 44 35.5 73.5t113.5 29.5q37 0 65 -4.5t47 -9.5q22 -6 38 -14l-28 -64q-12 8 -29 14q-14 5 -35.5 10t-48.5 5q-35 0 -56 -8.5t-21 -30.5
q0 -16 17 -24.5t42 -15t55 -13.5t55 -18.5t42 -31t17 -51.5q0 -22 -9 -41t-28.5 -33.5t-49.5 -23t-72 -8.5q-41 0 -69.5 6t-48.5 14q-23 9 -38 20z" />
    <glyph glyph-name="t" unicode="t" horiz-adv-x="320" 
d="M83 346v104h81v-104h129v-66h-129v-136q0 -44 17.5 -63.5t52.5 -19.5q17 0 33 7q7 3 14 7l27 -56q-9 -8 -22 -14q-11 -5 -27.5 -9t-36.5 -4q-67 0 -103 38t-36 111v139h-67v66h67z" />
    <glyph glyph-name="u" unicode="u" horiz-adv-x="455" 
d="M399 0h-54l-14 48h-4q-3 -6 -11.5 -15.5t-23.5 -18.5t-37 -15.5t-52 -6.5q-73 0 -112.5 42t-39.5 113v199h82v-188q0 -42 21.5 -70t66.5 -28q23 0 41 7.5t30 20t18.5 27.5t6.5 30v201h82v-346z" />
    <glyph glyph-name="v" unicode="v" horiz-adv-x="411" 
d="M234 0h-57l-169 346h90l94 -212q4 -8 7 -18.5t4 -18.5h5q1 8 4.5 18.5t7.5 18.5l93 212h90z" />
    <glyph glyph-name="w" unicode="w" horiz-adv-x="589" 
d="M12 346h87l78 -223q2 -6 3.5 -12t2.5 -14h7q1 8 2.5 13.5t3.5 12.5l69 223h62l69 -223q2 -7 3 -12.5t2 -13.5h7q1 8 3 14l4 12l78 223h83l-141 -346h-62l-69 211q-6 16 -7 33h-5q-2 -17 -7 -33l-70 -211h-61z" />
    <glyph glyph-name="x" unicode="x" horiz-adv-x="400" 
d="M151 178l-131 168h92l86 -117h3l87 117h92l-132 -168l139 -178h-92l-94 128h-3l-94 -128h-92z" />
    <glyph glyph-name="y" unicode="y" horiz-adv-x="409" 
d="M147 -192h-86l106 215l-156 323h89l100 -223q2 -6 3.5 -12t2.5 -14h5q1 8 2.5 14t3.5 12l98 223h84z" />
    <glyph glyph-name="z" unicode="z" horiz-adv-x="381" 
d="M32 0v37l202 242h-201v67h316v-34l-202 -245h202v-67h-317z" />
    <glyph glyph-name="braceleft" unicode="{" horiz-adv-x="267" 
d="M33 290q26 0 42.5 19t16.5 58v215q0 55 30.5 86t95.5 36l12 -69q-28 -4 -40 -15.5t-12 -44.5v-217q0 -38 -14 -63.5t-42 -34.5v-8q28 -8 42 -33.5t14 -61.5v-219q0 -32 12 -43.5t40 -15.5l-12 -69q-65 4 -95.5 35.5t-30.5 85.5v216q0 38 -16.5 57.5t-42.5 19.5h-16v66h16
z" />
    <glyph glyph-name="bar" unicode="|" horiz-adv-x="223" 
d="M149 -152h-75v825h75v-825z" />
    <glyph glyph-name="braceright" unicode="}" horiz-adv-x="267" 
d="M233 224q-26 0 -42.5 -19.5t-16.5 -57.5v-216q0 -54 -30.5 -85.5t-96.5 -35.5l-11 69q28 4 39.5 15.5t11.5 43.5v219q0 36 14.5 61.5t43.5 33.5v8q-29 9 -43.5 34.5t-14.5 63.5v217q0 33 -11.5 44.5t-39.5 15.5l11 69q66 -5 96.5 -36t30.5 -86v-215q0 -39 16.5 -58
t42.5 -19h16v-66h-16z" />
    <glyph glyph-name="asciitilde" unicode="~" horiz-adv-x="454" 
d="M299 314q19 0 32.5 3t23.5 7q11 4 19 11l26 -51q-10 -10 -24 -17q-12 -7 -30.5 -12t-44.5 -5q-20 0 -37.5 4t-35 8.5t-35.5 8.5t-39 4q-19 0 -32.5 -3.5t-23.5 -7.5q-11 -4 -19 -10l-25 51q10 9 24 17q12 6 30 11.5t44 5.5q20 0 37.5 -4t35 -8.5t35.5 -8.5t39 -4z" />
    <glyph glyph-name="exclamdown" unicode="&#xa1;" horiz-adv-x="241" 
d="M169 0h-99v37l21 388h57l21 -388v-37zM65 552q0 23 16 39.5t40 16.5q23 0 39.5 -16.5t16.5 -39.5t-16.5 -39t-39.5 -16q-24 0 -40 16t-16 39z" />
    <glyph glyph-name="cent" unicode="&#xa2;" horiz-adv-x="409" 
d="M201 -5q-35 6 -63.5 21t-49 38t-32 53t-11.5 65q0 70 42.5 118.5t112.5 60.5v91h58v-89q24 -2 43 -7t33 -10q16 -6 28 -13l-29 -64q-11 7 -25 13q-12 5 -28 9.5t-35 4.5q-24 0 -45.5 -8t-37 -23t-25 -36t-9.5 -47t9.5 -46.5t25 -35t37 -22.5t45.5 -8q19 0 35 3.5t28 8.5
q14 5 25 13l29 -62q-12 -7 -28 -13q-14 -5 -32.5 -10t-42.5 -7v-87h-58v89z" />
    <glyph glyph-name="sterling" unicode="&#xa3;" horiz-adv-x="516" 
d="M459 3h-394v73q17 7 30 21q11 12 21 32t10 52q0 15 -4.5 31t-11.5 33h-65v62h42q-8 21 -12.5 45t-4.5 50q0 37 14 73.5t42.5 66t72 48t103.5 18.5q46 0 78.5 -10.5t52.5 -22.5q24 -14 39 -32l-46 -60q-11 12 -29 23q-15 8 -37.5 15.5t-53.5 7.5q-38 0 -65.5 -12t-45 -31
t-26 -43t-8.5 -48q0 -25 5 -46.5t12 -41.5h226v-62h-202q5 -15 8.5 -30t3.5 -32q0 -38 -12.5 -64t-29.5 -43h287v-73z" />
    <glyph glyph-name="currency" unicode="&#xa4;" horiz-adv-x="577" 
d="M64 124l57 57q-37 51 -37 116q0 32 10 62t27 55l-57 58l54 53l54 -62q25 17 54 26.5t61 9.5t62 -10t55 -27l55 63l54 -53l-59 -60q17 -25 26.5 -54t9.5 -61t-9 -60.5t-26 -53.5l58 -59l-54 -53l-54 61q-25 -17 -55 -27t-63 -10q-32 0 -61.5 9.5t-54.5 26.5l-53 -60z
M161 297q0 -26 10 -49t27 -40.5t40 -27.5t49 -10t49 10t40 27.5t27 40.5t10 49t-10 49t-27 40.5t-40 27.5t-49 10t-49 -10t-40 -27.5t-27 -40.5t-10 -49z" />
    <glyph glyph-name="yen" unicode="&#xa5;" horiz-adv-x="606" 
d="M480 600h95l-193 -309h134v-63h-172v-79h172v-62h-172v-87h-83v87h-173v62h173v79h-173v63h134l-191 309h96l157 -254l17 -37h6l18 37z" />
    <glyph glyph-name="brokenbar" unicode="&#xa6;" horiz-adv-x="223" 
d="M74 -152v825h76v-825h-76z" />
    <glyph glyph-name="section" unicode="&#xa7;" horiz-adv-x="535" 
d="M83 -61q22 -18 50 -32q24 -12 57 -22t75 -10q36 0 61.5 8t41.5 20.5t23.5 29.5t7.5 35q0 21 -8 37.5t-25.5 30t-44.5 26t-64 26.5q-37 13 -67.5 27t-52.5 31t-34 39t-12 52q0 35 13.5 55t25.5 29q-35 22 -55.5 51.5t-20.5 71.5q0 36 13.5 67t40.5 53.5t68.5 35.5t97.5 13
q55 0 94.5 -10t65.5 -21q30 -14 50 -31l-46 -68q-18 15 -43 27q-21 11 -51.5 19.5t-69.5 8.5q-66 0 -96 -25.5t-30 -63.5t31 -64t89 -46q38 -13 72.5 -27t60 -32t40.5 -42t15 -55q0 -36 -12 -58.5t-23 -33.5q35 -23 54 -53t19 -70q0 -33 -13 -63.5t-40.5 -54t-70.5 -37.5
t-103 -14q-59 0 -101.5 12t-71.5 26q-33 17 -57 39zM239 274q-11 3 -20.5 6.5t-19.5 7.5q-5 -2 -15.5 -11.5t-10.5 -34.5q0 -28 28 -48t85 -40q17 -6 33.5 -12.5t31.5 -13.5q5 5 13 17t8 32q0 32 -34.5 54t-98.5 43z" />
    <glyph glyph-name="dieresis" unicode="&#xa8;" horiz-adv-x="403" 
d="M63 483q0 19 14 33t33 14t33 -14t14 -33t-14 -33t-33 -14t-33 14t-14 33zM245 483q0 19 14 33t33 14t33 -14t14 -33t-14 -33t-33 -14t-33 14t-14 33z" />
    <glyph glyph-name="copyright" unicode="&#xa9;" horiz-adv-x="719" 
d="M359 606q74 0 132.5 -24t99 -66t62 -98t21.5 -119t-21.5 -118.5t-62 -97.5t-99 -66t-132.5 -24t-132 24t-99 66t-62.5 97.5t-21.5 118.5t21.5 119t62.5 98t99 66t132 24zM359 559q-62 0 -110.5 -20.5t-83 -56t-52.5 -82.5t-18 -101q0 -53 18 -100t52.5 -82t83 -55.5
t110.5 -20.5t111 20.5t83.5 55.5t52.5 82t18 100q0 54 -18 101t-52.5 82.5t-83.5 56t-111 20.5zM442 384q-9 6 -20 11q-10 5 -24 8.5t-32 3.5q-50 0 -78.5 -30.5t-28.5 -76.5q0 -45 28.5 -75.5t78.5 -30.5q18 0 32 3t24 8q11 5 20 12l29 -39q-11 -11 -26 -19
q-14 -7 -33.5 -12.5t-47.5 -5.5q-39 0 -69.5 12.5t-51.5 34t-32 50.5t-11 62t11 62.5t32 51t51.5 34t69.5 12.5q28 0 47.5 -6t33.5 -13q15 -8 26 -18z" />
    <glyph glyph-name="ordfeminine" unicode="&#xaa;" horiz-adv-x="404" 
d="M34 367q0 48 38.5 76t103.5 28q43 0 69.5 -8.5t37.5 -18.5v15q0 48 -23.5 72.5t-81.5 24.5q-18 0 -35 -3t-30 -7t-21.5 -7.5t-11.5 -4.5l-21 54q19 7 41 13q19 5 42.5 9t48.5 4q44 0 74.5 -11t49.5 -32t27.5 -50t8.5 -65v-182h-50l-11 33h-5q-10 -13 -36 -27t-83 -14
t-94.5 27.5t-37.5 73.5zM101 371q0 -26 22.5 -41.5t61.5 -15.5q43 0 69.5 16.5t28.5 39.5v3q0 26 -26 40.5t-67 14.5q-43 0 -66 -15t-23 -42z" />
    <glyph glyph-name="guillemotleft" unicode="&#xab;" 
d="M36 181l106 155h70v-8l-104 -153v-5l104 -155v-8h-70l-106 155v19zM213 181l106 155h69v-8l-104 -153v-5l104 -155v-8h-69l-106 155v19z" />
    <glyph glyph-name="registered" unicode="&#xae;" horiz-adv-x="568" 
d="M522 380q0 -48 -16.5 -90.5t-47 -74.5t-75 -50.5t-100.5 -18.5t-99.5 18.5t-74 50.5t-46.5 74.5t-16 90.5t16 90.5t46.5 74.5t74 50.5t99.5 18.5t100.5 -18.5t75 -50.5t47 -74.5t16.5 -90.5zM470 380q0 40 -13.5 73.5t-38 58.5t-59 39t-76.5 14q-41 0 -75 -13.5
t-58.5 -37.5t-38 -58t-13.5 -76q0 -39 13.5 -73t38 -59t58.5 -39t75 -14q42 0 76.5 14t59 38.5t38 58.5t13.5 74zM289 485q40 0 65.5 -19.5t25.5 -54.5q0 -23 -11 -39t-28 -25l41 -54v-10h-42l-40 53h-64v-53h-41v202h94zM236 447v-74h51q22 0 36 8.5t14 28.5q0 19 -13.5 28
t-34.5 9h-53z" />
    <glyph glyph-name="macron" unicode="&#xaf;" horiz-adv-x="433" 
d="M83 495h267v-52h-267v52z" />
    <glyph glyph-name="degree" unicode="&#xb0;" horiz-adv-x="304" 
d="M152 672q26 0 47.5 -8.5t37 -23t24 -34.5t8.5 -42q0 -45 -32 -76t-85 -31t-85 31t-32 76q0 22 8.5 42t24 34.5t37 23t47.5 8.5zM152 628q-31 0 -49.5 -19t-18.5 -45t18.5 -44t49.5 -18q32 0 50 18t18 44t-18 45t-50 19z" />
    <glyph glyph-name="plusminus" unicode="&#xb1;" horiz-adv-x="547" 
d="M241 173v167h-177v67h177v172h69v-172h173v-67h-173v-167h-69zM483 36h-419v68h419v-68z" />
    <glyph glyph-name="acute" unicode="&#xb4;" horiz-adv-x="247" 
d="M101 419h-52v15l43 143h96v-15z" />
    <glyph glyph-name="paragraph" unicode="&#xb6;" horiz-adv-x="500" 
d="M326 108h-59q-54 0 -97.5 13t-74.5 38.5t-48 63t-17 87.5q0 95 62 144.5t171 49.5h145v-667h-82v271z" />
    <glyph glyph-name="periodcentered" unicode="&#xb7;" horiz-adv-x="161" 
d="M25 359q0 23 15.5 39.5t38.5 16.5q24 0 40 -16.5t16 -39.5t-16 -39t-40 -16q-23 0 -38.5 16t-15.5 39z" />
    <glyph glyph-name="cedilla" unicode="&#xb8;" horiz-adv-x="216" 
d="M65 -46l24 48h44l-15 -32q29 0 48 -15.5t19 -47.5t-21 -52t-61 -20q-20 0 -34 4.5t-24 10.5q-11 6 -19 15l18 32q6 -7 15 -11q8 -4 18 -7t24 -3q41 0 41 32q0 15 -11 23.5t-28 8.5q-5 0 -9 -1t-7 -2l-6 -3z" />
    <glyph glyph-name="ordmasculine" unicode="&#xba;" horiz-adv-x="417" 
d="M209 613q37 0 69 -12t55 -34.5t36 -55t13 -72.5q0 -39 -13 -70.5t-36 -54t-55 -34.5t-69 -12q-38 0 -70 12t-55 34.5t-36 54t-13 70.5q0 40 13 72.5t36 55t55 34.5t70 12zM209 554q-48 0 -77.5 -31t-29.5 -83q0 -51 29.5 -81.5t77.5 -30.5t77 30.5t29 81.5q0 52 -29 83
t-77 31z" />
    <glyph glyph-name="guillemotright" unicode="&#xbb;" 
d="M213 162l-106 -155h-70v8l103 155v5l-103 153v8h70l106 -155v-19zM388 162l-106 -155h-69v8l103 155v5l-103 153v8h69l106 -155v-19z" />
    <glyph glyph-name="onequarter" unicode="&#xbc;" horiz-adv-x="637" 
d="M320 120l187 206h43v-194h52v-48h-52v-84h-56v84h-174v36zM51 38l469 564l43 -34l-470 -564zM39 600h129v-326h-58v276h-71v50zM421 161q-9 -11 -18 -20t-11 -12l44 3h58v113h-1z" />
    <glyph glyph-name="onehalf" unicode="&#xbd;" horiz-adv-x="718" 
d="M51 38l469 564l43 -34l-470 -564zM423 18l146 141q16 17 26 32t10 32q0 25 -16.5 41t-51.5 16q-18 0 -33 -5t-26.5 -11t-18 -11.5t-7.5 -6.5l-30 44q14 12 32 22q16 8 38 15.5t50 7.5q34 0 57.5 -8.5t38.5 -22.5t21.5 -33t6.5 -40q0 -27 -12.5 -50t-34.5 -44l-91 -87h156
v-50h-261v18zM39 600h129v-326h-58v276h-71v50z" />
    <glyph glyph-name="threequarters" unicode="&#xbe;" horiz-adv-x="735" 
d="M417 119l187 206h43v-194h52v-48h-52v-83h-55v83h-175v36zM52 600h236v-15l-73 -114q87 -12 87 -97q0 -22 -8.5 -41.5t-25 -34.5t-42 -23.5t-59.5 -8.5q-28 0 -51 6.5t-39.5 14.5t-26.5 15.5t-12 9.5l32 43q12 -10 27 -18q13 -7 30 -12t38 -5q41 0 59.5 16.5t18.5 39.5
q0 24 -17 38.5t-52 14.5h-39v16l69 105h-152v50zM152 38l469 564l43 -34l-469 -564zM518 159q-8 -10 -17.5 -19t-11.5 -12l44 3h59v113h-1z" />
    <glyph glyph-name="questiondown" unicode="&#xbf;" horiz-adv-x="383" 
d="M348 25q-16 -10 -38 -17q-19 -6 -46.5 -11t-62.5 -5q-38 0 -67.5 10.5t-49.5 29.5t-31 44t-11 54q0 34 10 59.5t24.5 45.5t32.5 37.5t33.5 36t27.5 40.5t15 52l2 32h57v-40q0 -46 -18.5 -76.5t-41 -56t-41 -51.5t-18.5 -63q0 -38 25 -61.5t67 -23.5q25 0 44 4.5t32 9.5
q15 6 26 15zM268 559q0 -23 -16 -38t-39 -15t-38 15t-15 38t15 38.5t38 15.5t39 -15.5t16 -38.5z" />
    <glyph glyph-name="Agrave" unicode="&#xc0;" horiz-adv-x="611" 
d="M297 600h17l299 -600h-94l-49 98h-329l-49 -98h-93zM310 438h-10l-117 -257l-6 -10h257l-6 10zM190 781v15h97l42 -143v-15h-52z" />
    <glyph glyph-name="Aacute" unicode="&#xc1;" horiz-adv-x="611" 
d="M297 600h17l299 -600h-94l-49 98h-329l-49 -98h-93zM310 438h-10l-117 -257l-6 -10h257l-6 10zM332 638h-52v15l43 143h96v-15z" />
    <glyph glyph-name="Acircumflex" unicode="&#xc2;" horiz-adv-x="611" 
d="M305 737l-93 -99h-52v15l100 143h89l100 -143v-15h-52zM297 600h17l299 -600h-94l-49 98h-329l-49 -98h-93zM310 438h-10l-117 -257l-6 -10h257l-6 10z" />
    <glyph glyph-name="Atilde" unicode="&#xc3;" horiz-adv-x="611" 
d="M297 600h17l299 -600h-94l-49 98h-329l-49 -98h-93zM310 438h-10l-117 -257l-6 -10h257l-6 10zM374 645q-21 0 -38.5 7t-32.5 15.5t-29 15.5t-28 7q-18 0 -25 -10t-12 -24l-4 -13l-58 6l5 26q7 32 26 55t59 23q21 0 38 -7t32 -15.5t29 -15.5t28 -7q20 0 27.5 9.5
t10.5 23.5l3 13l58 -5l-4 -26q-6 -32 -26 -55t-59 -23z" />
    <glyph glyph-name="Adieresis" unicode="&#xc4;" horiz-adv-x="611" 
d="M166 721q0 19 14 33t33 14t33 -14t14 -33t-14 -33t-33 -14t-33 14t-14 33zM348 721q0 19 14 33t33 14t33 -14t14 -33t-14 -33t-33 -14t-33 14t-14 33zM297 600h17l299 -600h-94l-49 98h-329l-49 -98h-93zM310 438h-10l-117 -257l-6 -10h257l-6 10z" />
    <glyph glyph-name="Aring" unicode="&#xc5;" horiz-adv-x="612" 
d="M283 572q-34 7 -55 32t-21 60q0 41 28 67.5t70 26.5t69 -26.5t27 -67.5q0 -35 -20.5 -59.5t-52.5 -32.5l285 -572h-94l-49 98h-329l-49 -98h-93zM310 438h-10l-117 -257l-6 -10h257l-6 10zM348 664q0 20 -11.5 32t-31.5 12t-32.5 -12t-12.5 -32t12.5 -31.5t32.5 -11.5
t31.5 11.5t11.5 31.5z" />
    <glyph glyph-name="AE" unicode="&#xc6;" horiz-adv-x="912" 
d="M417 600h457v-75h-363v-193h315v-73h-315v-184h363v-75h-446v98h-273l-67 -98h-102zM205 171h223v301h-9z" />
    <glyph glyph-name="Ccedilla" unicode="&#xc7;" horiz-adv-x="589" 
d="M309 -46l16 33q-64 5 -116.5 31.5t-89.5 68t-57.5 96t-20.5 116.5q0 66 22.5 123.5t64 99.5t99 66.5t128.5 24.5q54 0 93 -12t65 -26q30 -17 51 -38l-47 -64q-19 17 -44 31q-21 11 -50.5 21t-66.5 10q-51 0 -93.5 -18.5t-73 -50.5t-47.5 -75t-17 -92t17 -91.5t47.5 -74.5
t73 -50.5t93.5 -18.5q38 0 67.5 9.5t50.5 21.5q25 13 43 31l47 -64q-20 -20 -48 -36q-24 -14 -60.5 -26t-86.5 -14l-7 -16q29 0 48 -15.5t19 -47.5t-21 -52t-61 -20q-20 0 -34 4.5t-24 10.5q-11 6 -19 15l18 32q6 -7 15 -11q8 -4 18 -7t24 -3q41 0 41 32q0 15 -11 23.5
t-28 8.5q-5 0 -9 -1t-7 -2l-6 -3z" />
    <glyph glyph-name="Egrave" unicode="&#xc8;" horiz-adv-x="567" 
d="M481 260h-316v-185h364v-75h-446v600h446v-75h-364v-192h316v-73zM209 780v15h97l42 -143v-15h-52z" />
    <glyph glyph-name="Eacute" unicode="&#xc9;" horiz-adv-x="567" 
d="M330 638h-52v15l43 143h96v-15zM481 260h-316v-185h364v-75h-446v600h446v-75h-364v-192h316v-73z" />
    <glyph glyph-name="Ecircumflex" unicode="&#xca;" horiz-adv-x="567" 
d="M311 737l-93 -99h-52v15l100 143h89l100 -143v-15h-52zM481 260h-316v-185h364v-75h-446v600h446v-75h-364v-192h316v-73z" />
    <glyph glyph-name="Edieresis" unicode="&#xcb;" horiz-adv-x="567" 
d="M172 705q0 19 14 33t33 14t33 -14t14 -33t-14 -33t-33 -14t-33 14t-14 33zM354 705q0 19 14 33t33 14t33 -14t14 -33t-14 -33t-33 -14t-33 14t-14 33zM481 260h-316v-185h364v-75h-446v600h446v-75h-364v-192h316v-73z" />
    <glyph glyph-name="Igrave" unicode="&#xcc;" horiz-adv-x="248" 
d="M165 0h-82v600h82v-600zM9 780v15h97l42 -143v-15h-52z" />
    <glyph glyph-name="Iacute" unicode="&#xcd;" horiz-adv-x="248" 
d="M165 0h-82v600h82v-600zM150 638h-52v15l43 143h96v-15z" />
    <glyph glyph-name="Icircumflex" unicode="&#xce;" horiz-adv-x="248" 
d="M125 737l-93 -99h-52v15l100 143h89l100 -143v-15h-52zM165 0h-82v600h82v-600z" />
    <glyph glyph-name="Idieresis" unicode="&#xcf;" horiz-adv-x="248" 
d="M-14 705q0 19 14 33t33 14t33 -14t14 -33t-14 -33t-33 -14t-33 14t-14 33zM168 705q0 19 14 33t33 14t33 -14t14 -33t-14 -33t-33 -14t-33 14t-14 33zM165 0h-82v600h82v-600z" />
    <glyph glyph-name="Eth" unicode="&#xd0;" horiz-adv-x="668" 
d="M16 329h75v271h215q72 0 130.5 -21.5t100.5 -60.5t65 -94.5t23 -123.5t-23 -123.5t-65 -94.5t-100.5 -60.5t-130.5 -21.5h-215v270h-75v59zM173 525v-196h122v-59h-122v-195h127q51 0 95.5 15t76.5 44t50.5 70.5t18.5 95.5t-18.5 95.5t-50.5 70.5t-76.5 44t-95.5 15h-127
z" />
    <glyph glyph-name="Ntilde" unicode="&#xd1;" horiz-adv-x="696" 
d="M614 0h-23l-426 431v-431h-82v600h23l425 -426v426h83v-600zM417 660q-21 0 -38.5 7t-32.5 15.5t-29 15.5t-28 7q-18 0 -25 -10t-12 -24l-4 -13l-58 6l5 26q7 32 26 55t59 23q21 0 38 -7t32 -15.5t29 -15.5t28 -7q20 0 27.5 9.5t10.5 23.5l3 13l58 -5l-4 -26
q-6 -32 -26 -55t-59 -23z" />
    <glyph glyph-name="Ograve" unicode="&#xd2;" horiz-adv-x="706" 
d="M240 781v15h97l42 -143v-15h-52zM352 -14q-71 0 -128.5 24.5t-98 67t-62.5 99.5t-22 122q0 66 22 123.5t62.5 99.5t98 66.5t128.5 24.5q72 0 130 -24.5t98.5 -66.5t62.5 -99.5t22 -123.5q0 -65 -22 -122t-62.5 -99.5t-98.5 -67t-130 -24.5zM352 65q52 0 94.5 18.5
t72.5 50t46 74t16 91.5t-16 92t-46 75t-72.5 50.5t-94.5 18.5t-94 -18.5t-71.5 -50.5t-45.5 -75t-16 -92t16 -91.5t45.5 -74t71.5 -50t94 -18.5z" />
    <glyph glyph-name="Oacute" unicode="&#xd3;" horiz-adv-x="706" 
d="M376 638h-52v15l43 143h96v-15zM352 -14q-71 0 -128.5 24.5t-98 67t-62.5 99.5t-22 122q0 66 22 123.5t62.5 99.5t98 66.5t128.5 24.5q72 0 130 -24.5t98.5 -66.5t62.5 -99.5t22 -123.5q0 -65 -22 -122t-62.5 -99.5t-98.5 -67t-130 -24.5zM352 65q52 0 94.5 18.5t72.5 50
t46 74t16 91.5t-16 92t-46 75t-72.5 50.5t-94.5 18.5t-94 -18.5t-71.5 -50.5t-45.5 -75t-16 -92t16 -91.5t45.5 -74t71.5 -50t94 -18.5z" />
    <glyph glyph-name="Ocircumflex" unicode="&#xd4;" horiz-adv-x="706" 
d="M352 737l-93 -99h-52v15l100 143h89l100 -143v-15h-52zM352 -14q-71 0 -128.5 24.5t-98 67t-62.5 99.5t-22 122q0 66 22 123.5t62.5 99.5t98 66.5t128.5 24.5q72 0 130 -24.5t98.5 -66.5t62.5 -99.5t22 -123.5q0 -65 -22 -122t-62.5 -99.5t-98.5 -67t-130 -24.5zM352 65
q52 0 94.5 18.5t72.5 50t46 74t16 91.5t-16 92t-46 75t-72.5 50.5t-94.5 18.5t-94 -18.5t-71.5 -50.5t-45.5 -75t-16 -92t16 -91.5t45.5 -74t71.5 -50t94 -18.5z" />
    <glyph glyph-name="Otilde" unicode="&#xd5;" horiz-adv-x="706" 
d="M352 -14q-71 0 -128.5 24.5t-98 67t-62.5 99.5t-22 122q0 66 22 123.5t62.5 99.5t98 66.5t128.5 24.5q72 0 130 -24.5t98.5 -66.5t62.5 -99.5t22 -123.5q0 -65 -22 -122t-62.5 -99.5t-98.5 -67t-130 -24.5zM352 65q52 0 94.5 18.5t72.5 50t46 74t16 91.5t-16 92t-46 75
t-72.5 50.5t-94.5 18.5t-94 -18.5t-71.5 -50.5t-45.5 -75t-16 -92t16 -91.5t45.5 -74t71.5 -50t94 -18.5zM421 659q-21 0 -38.5 7t-32.5 15.5t-29 15.5t-28 7q-18 0 -25 -10t-12 -24l-4 -13l-58 6l5 26q7 32 26 55t59 23q21 0 38 -7t32 -15.5t29 -15.5t28 -7q20 0 27.5 9.5
t10.5 23.5l3 13l58 -5l-4 -26q-6 -32 -26 -55t-59 -23z" />
    <glyph glyph-name="Odieresis" unicode="&#xd6;" horiz-adv-x="706" 
d="M214 704q0 19 14 33t33 14t33 -14t14 -33t-14 -33t-33 -14t-33 14t-14 33zM396 704q0 19 14 33t33 14t33 -14t14 -33t-14 -33t-33 -14t-33 14t-14 33zM352 -14q-71 0 -128.5 24.5t-98 67t-62.5 99.5t-22 122q0 66 22 123.5t62.5 99.5t98 66.5t128.5 24.5q72 0 130 -24.5
t98.5 -66.5t62.5 -99.5t22 -123.5q0 -65 -22 -122t-62.5 -99.5t-98.5 -67t-130 -24.5zM352 65q52 0 94.5 18.5t72.5 50t46 74t16 91.5t-16 92t-46 75t-72.5 50.5t-94.5 18.5t-94 -18.5t-71.5 -50.5t-45.5 -75t-16 -92t16 -91.5t45.5 -74t71.5 -50t94 -18.5z" />
    <glyph glyph-name="multiply" unicode="&#xd7;" horiz-adv-x="515" 
d="M56 149l154 154l-154 154l48 47l153 -154l154 154l48 -47l-154 -154l154 -154l-48 -47l-154 153l-153 -153z" />
    <glyph glyph-name="Oslash" unicode="&#xd8;" horiz-adv-x="704" 
d="M352 -14q-63 0 -115 19t-91 52l-62 -60l-41 42l62 61q-31 41 -47.5 91.5t-16.5 107.5q0 66 22 123.5t62.5 99.5t98 66.5t128.5 24.5q63 0 114.5 -18.5t91.5 -51.5l54 53l41 -42l-54 -53q32 -41 49 -92.5t17 -109.5q0 -65 -22 -122t-62.5 -99.5t-98.5 -67t-130 -24.5z
M352 65q52 0 94.5 18.5t72.5 50t46 74t16 91.5q0 82 -43 142l-333 -326q29 -23 65.5 -36.5t81.5 -13.5zM125 299q0 -81 41 -140l332 326q-29 23 -65 36.5t-81 13.5q-52 0 -94 -18.5t-71.5 -50.5t-45.5 -75t-16 -92z" />
    <glyph glyph-name="Ugrave" unicode="&#xd9;" horiz-adv-x="659" 
d="M330 -14q-60 0 -107.5 19.5t-80.5 55t-50.5 84t-17.5 107.5v348h82v-348q0 -40 11 -74.5t32.5 -59.5t54 -39t76.5 -14q43 0 75.5 14t54.5 39t32.5 59.5t10.5 74.5v348h83v-348q0 -59 -17 -107.5t-50 -84t-80.5 -55t-108.5 -19.5zM222 781v15h97l42 -143v-15h-52z" />
    <glyph glyph-name="Uacute" unicode="&#xda;" horiz-adv-x="659" 
d="M358 638h-52v15l43 143h96v-15zM330 -14q-60 0 -107.5 19.5t-80.5 55t-50.5 84t-17.5 107.5v348h82v-348q0 -40 11 -74.5t32.5 -59.5t54 -39t76.5 -14q43 0 75.5 14t54.5 39t32.5 59.5t10.5 74.5v348h83v-348q0 -59 -17 -107.5t-50 -84t-80.5 -55t-108.5 -19.5z" />
    <glyph glyph-name="Ucircumflex" unicode="&#xdb;" horiz-adv-x="659" 
d="M333 737l-93 -99h-52v15l100 143h89l100 -143v-15h-52zM330 -14q-60 0 -107.5 19.5t-80.5 55t-50.5 84t-17.5 107.5v348h82v-348q0 -40 11 -74.5t32.5 -59.5t54 -39t76.5 -14q43 0 75.5 14t54.5 39t32.5 59.5t10.5 74.5v348h83v-348q0 -59 -17 -107.5t-50 -84t-80.5 -55
t-108.5 -19.5z" />
    <glyph glyph-name="Udieresis" unicode="&#xdc;" horiz-adv-x="659" 
d="M193 706q0 19 14 33t33 14t33 -14t14 -33t-14 -33t-33 -14t-33 14t-14 33zM375 706q0 19 14 33t33 14t33 -14t14 -33t-14 -33t-33 -14t-33 14t-14 33zM330 -14q-60 0 -107.5 19.5t-80.5 55t-50.5 84t-17.5 107.5v348h82v-348q0 -40 11 -74.5t32.5 -59.5t54 -39t76.5 -14
q43 0 75.5 14t54.5 39t32.5 59.5t10.5 74.5v348h83v-348q0 -59 -17 -107.5t-50 -84t-80.5 -55t-108.5 -19.5z" />
    <glyph glyph-name="Yacute" unicode="&#xdd;" horiz-adv-x="550" 
d="M452 600h95l-231 -370v-230h-83v229l-230 371h96l157 -254l17 -37h6l18 37zM301 638h-52v15l43 143h96v-15z" />
    <glyph glyph-name="Thorn" unicode="&#xde;" horiz-adv-x="603" 
d="M165 504h170q113 0 177 -52t64 -150q0 -51 -17.5 -90.5t-50 -65.5t-78 -39.5t-100.5 -13.5h-165v-93h-82v600h82v-96zM490 299q0 66 -43 97.5t-115 31.5h-167v-260h167q73 0 115.5 30.5t42.5 100.5z" />
    <glyph glyph-name="germandbls" unicode="&#xdf;" horiz-adv-x="480" 
d="M214 125v27l94 130h-169v-282h-82v453q0 85 38 131.5t126 46.5q16 0 29 -2.5t23 -4.5q11 -4 20 -7l-22 -70q-6 2 -13 5q-6 2 -14 3.5t-16 1.5q-43 0 -66 -22.5t-23 -75.5v-112h294v-16l-113 -153q56 -8 92.5 -40t36.5 -96q0 -70 -49 -108.5t-131 -38.5q-26 0 -45.5 2.5
t-32.5 6.5q-15 4 -26 9l18 59q10 -4 22 -7q11 -2 26 -4t35 -2q44 0 69.5 23.5t25.5 60.5q0 40 -27 61t-71 21h-49z" />
    <glyph glyph-name="agrave" unicode="&#xe0;" 
d="M28 103q0 45 38 75.5t117 30.5q47 0 71.5 -10t33.5 -17h6v17q0 43 -25.5 65.5t-83.5 22.5q-23 0 -41.5 -4.5t-31.5 -9.5q-15 -6 -27 -13l-27 61q14 9 35 16q18 6 44.5 11.5t62.5 5.5q46 0 79 -12t54 -34t30.5 -51.5t9.5 -65.5v-191h-58l-8 40h-5q-4 -5 -12.5 -13.5
t-23.5 -16t-37.5 -13t-54.5 -5.5q-74 0 -110 32.5t-36 78.5zM108 105q0 -23 20.5 -39.5t63.5 -16.5q22 0 40.5 6t31.5 14.5t20.5 18.5t7.5 19q0 23 -27.5 38t-72.5 15q-41 0 -62.5 -14.5t-21.5 -40.5zM92 562v15h97l42 -143v-15h-52z" />
    <glyph glyph-name="aacute" unicode="&#xe1;" 
d="M28 103q0 45 38 75.5t117 30.5q47 0 71.5 -10t33.5 -17h6v17q0 43 -25.5 65.5t-83.5 22.5q-23 0 -41.5 -4.5t-31.5 -9.5q-15 -6 -27 -13l-27 61q14 9 35 16q18 6 44.5 11.5t62.5 5.5q46 0 79 -12t54 -34t30.5 -51.5t9.5 -65.5v-191h-58l-8 40h-5q-4 -5 -12.5 -13.5
t-23.5 -16t-37.5 -13t-54.5 -5.5q-74 0 -110 32.5t-36 78.5zM108 105q0 -23 20.5 -39.5t63.5 -16.5q22 0 40.5 6t31.5 14.5t20.5 18.5t7.5 19q0 23 -27.5 38t-72.5 15q-41 0 -62.5 -14.5t-21.5 -40.5zM238 419h-52v15l43 143h96v-15z" />
    <glyph glyph-name="acircumflex" unicode="&#xe2;" 
d="M28 103q0 45 38 75.5t117 30.5q47 0 71.5 -10t33.5 -17h6v17q0 43 -25.5 65.5t-83.5 22.5q-23 0 -41.5 -4.5t-31.5 -9.5q-15 -6 -27 -13l-27 61q14 9 35 16q18 6 44.5 11.5t62.5 5.5q46 0 79 -12t54 -34t30.5 -51.5t9.5 -65.5v-191h-58l-8 40h-5q-4 -5 -12.5 -13.5
t-23.5 -16t-37.5 -13t-54.5 -5.5q-74 0 -110 32.5t-36 78.5zM108 105q0 -23 20.5 -39.5t63.5 -16.5q22 0 40.5 6t31.5 14.5t20.5 18.5t7.5 19q0 23 -27.5 38t-72.5 15q-41 0 -62.5 -14.5t-21.5 -40.5zM215 518l-93 -99h-52v15l100 143h89l100 -143v-15h-52z" />
    <glyph glyph-name="atilde" unicode="&#xe3;" 
d="M28 103q0 45 38 75.5t117 30.5q47 0 71.5 -10t33.5 -17h6v17q0 43 -25.5 65.5t-83.5 22.5q-23 0 -41.5 -4.5t-31.5 -9.5q-15 -6 -27 -13l-27 61q14 9 35 16q18 6 44.5 11.5t62.5 5.5q46 0 79 -12t54 -34t30.5 -51.5t9.5 -65.5v-191h-58l-8 40h-5q-4 -5 -12.5 -13.5
t-23.5 -16t-37.5 -13t-54.5 -5.5q-74 0 -110 32.5t-36 78.5zM108 105q0 -23 20.5 -39.5t63.5 -16.5q22 0 40.5 6t31.5 14.5t20.5 18.5t7.5 19q0 23 -27.5 38t-72.5 15q-41 0 -62.5 -14.5t-21.5 -40.5zM273 439q-21 0 -38.5 7t-32.5 15.5t-29 15.5t-28 7q-18 0 -25 -10
t-12 -24l-4 -13l-58 6l5 26q7 32 26 55t59 23q21 0 38 -7t32 -15.5t29 -15.5t28 -7q20 0 27.5 9.5t10.5 23.5l3 13l58 -5l-4 -26q-6 -32 -26 -55t-59 -23z" />
    <glyph glyph-name="adieresis" unicode="&#xe4;" 
d="M28 103q0 45 38 75.5t117 30.5q47 0 71.5 -10t33.5 -17h6v17q0 43 -25.5 65.5t-83.5 22.5q-23 0 -41.5 -4.5t-31.5 -9.5q-15 -6 -27 -13l-27 61q14 9 35 16q18 6 44.5 11.5t62.5 5.5q46 0 79 -12t54 -34t30.5 -51.5t9.5 -65.5v-191h-58l-8 40h-5q-4 -5 -12.5 -13.5
t-23.5 -16t-37.5 -13t-54.5 -5.5q-74 0 -110 32.5t-36 78.5zM108 105q0 -23 20.5 -39.5t63.5 -16.5q22 0 40.5 6t31.5 14.5t20.5 18.5t7.5 19q0 23 -27.5 38t-72.5 15q-41 0 -62.5 -14.5t-21.5 -40.5zM70 483q0 19 14 33t33 14t33 -14t14 -33t-14 -33t-33 -14t-33 14t-14 33
zM252 483q0 19 14 33t33 14t33 -14t14 -33t-14 -33t-33 -14t-33 14t-14 33z" />
    <glyph glyph-name="aring" unicode="&#xe5;" 
d="M28 103q0 45 38 75.5t117 30.5q47 0 71.5 -10t33.5 -17h6v17q0 43 -25.5 65.5t-83.5 22.5q-23 0 -41.5 -4.5t-31.5 -9.5q-15 -6 -27 -13l-27 61q14 9 35 16q18 6 44.5 11.5t62.5 5.5q46 0 79 -12t54 -34t30.5 -51.5t9.5 -65.5v-191h-58l-8 40h-5q-4 -5 -12.5 -13.5
t-23.5 -16t-37.5 -13t-54.5 -5.5q-74 0 -110 32.5t-36 78.5zM108 105q0 -23 20.5 -39.5t63.5 -16.5q22 0 40.5 6t31.5 14.5t20.5 18.5t7.5 19q0 23 -27.5 38t-72.5 15q-41 0 -62.5 -14.5t-21.5 -40.5zM205 427q-42 0 -70 26.5t-28 67.5t28 67.5t70 26.5t69 -26.5t27 -67.5
t-27 -67.5t-69 -26.5zM248 521q0 20 -11.5 32t-31.5 12t-32.5 -12t-12.5 -32t12.5 -31.5t32.5 -11.5t31.5 11.5t11.5 31.5z" />
    <glyph glyph-name="ae" unicode="&#xe6;" horiz-adv-x="682" 
d="M626 29q-15 -11 -35 -19q-17 -8 -42.5 -13.5t-58.5 -5.5q-48 0 -85.5 15.5t-63.5 44.5q-23 -26 -61.5 -42.5t-94.5 -16.5q-41 0 -71 9t-49 24.5t-28 35.5t-9 42q0 47 38 76.5t107 29.5q30 0 51.5 -4t35.5 -9.5t21 -10.5t9 -6h2v16q0 43 -24.5 68t-82.5 25q-23 0 -41.5 -4
t-32.5 -9q-16 -5 -29 -12l-25 60q17 8 39 15q19 6 45.5 11t58.5 5q52 0 87 -15.5t55 -41.5q24 27 59.5 42t78.5 15q40 0 72 -12.5t54.5 -35.5t34 -55t11.5 -71q0 -3 -0.5 -7t-0.5 -8v-9h-274q5 -51 38.5 -75.5t80.5 -24.5q24 0 42.5 4t32.5 9q15 6 27 14zM105 105
q0 -25 20.5 -40.5t66.5 -15.5q42 0 71.5 17t29.5 40q0 12 -8.5 21.5t-22.5 16t-32 10.5t-38 4q-46 0 -66.5 -14.5t-20.5 -38.5zM479 291q-39 0 -65.5 -21t-34.5 -63h195q-5 35 -29 59.5t-66 24.5z" />
    <glyph glyph-name="ccedilla" unicode="&#xe7;" horiz-adv-x="363" 
d="M175 -46l20 40q-36 4 -66 19t-51 38t-33 54t-12 67q0 40 14 73.5t39.5 57.5t61 37.5t77.5 13.5q28 0 49.5 -5t35.5 -10q17 -7 29 -15l-24 -61q-10 6 -22 11q-11 5 -26.5 8.5t-34.5 3.5q-49 0 -83 -30.5t-34 -83.5q0 -52 34 -82t83 -30q19 0 34.5 3t26.5 8q12 5 22 12
l22 -61q-11 -8 -25 -14q-13 -5 -31 -9.5t-43 -6.5l-10 -22q29 0 48 -15.5t19 -47.5t-21 -52t-61 -20q-20 0 -34 4.5t-24 10.5q-11 6 -19 15l18 32q6 -7 15 -11q8 -4 18 -7t24 -3q41 0 41 32q0 15 -11 23.5t-28 8.5q-5 0 -9 -1t-7 -2l-6 -3z" />
    <glyph glyph-name="egrave" unicode="&#xe8;" horiz-adv-x="416" 
d="M361 31q-14 -11 -33 -20q-17 -8 -41.5 -14t-56.5 -6q-45 0 -81.5 13.5t-62 37.5t-39.5 57.5t-14 72.5t13.5 72.5t37.5 58t57.5 38t74.5 13.5q40 0 72 -13t54.5 -36.5t34 -55.5t11.5 -69q0 -3 -0.5 -7t-0.5 -8v-9h-274q5 -51 38.5 -75.5t80.5 -24.5q24 0 43 4.5t32 9.5
q15 6 26 15zM215 290q-38 0 -64.5 -21t-35.5 -60h193q-5 35 -29.5 58t-63.5 23zM101 562v15h97l42 -143v-15h-52z" />
    <glyph glyph-name="eacute" unicode="&#xe9;" horiz-adv-x="416" 
d="M244 419h-52v15l43 143h96v-15zM361 31q-14 -11 -33 -20q-17 -8 -41.5 -14t-56.5 -6q-45 0 -81.5 13.5t-62 37.5t-39.5 57.5t-14 72.5t13.5 72.5t37.5 58t57.5 38t74.5 13.5q40 0 72 -13t54.5 -36.5t34 -55.5t11.5 -69q0 -3 -0.5 -7t-0.5 -8v-9h-274q5 -51 38.5 -75.5
t80.5 -24.5q24 0 43 4.5t32 9.5q15 6 26 15zM215 290q-38 0 -64.5 -21t-35.5 -60h193q-5 35 -29.5 58t-63.5 23z" />
    <glyph glyph-name="ecircumflex" unicode="&#xea;" horiz-adv-x="416" 
d="M217 518l-93 -99h-52v15l100 143h89l100 -143v-15h-52zM361 31q-14 -11 -33 -20q-17 -8 -41.5 -14t-56.5 -6q-45 0 -81.5 13.5t-62 37.5t-39.5 57.5t-14 72.5t13.5 72.5t37.5 58t57.5 38t74.5 13.5q40 0 72 -13t54.5 -36.5t34 -55.5t11.5 -69q0 -3 -0.5 -7t-0.5 -8v-9
h-274q5 -51 38.5 -75.5t80.5 -24.5q24 0 43 4.5t32 9.5q15 6 26 15zM215 290q-38 0 -64.5 -21t-35.5 -60h193q-5 35 -29.5 58t-63.5 23z" />
    <glyph glyph-name="edieresis" unicode="&#xeb;" horiz-adv-x="416" 
d="M78 483q0 19 14 33t33 14t33 -14t14 -33t-14 -33t-33 -14t-33 14t-14 33zM260 483q0 19 14 33t33 14t33 -14t14 -33t-14 -33t-33 -14t-33 14t-14 33zM361 31q-14 -11 -33 -20q-17 -8 -41.5 -14t-56.5 -6q-45 0 -81.5 13.5t-62 37.5t-39.5 57.5t-14 72.5t13.5 72.5
t37.5 58t57.5 38t74.5 13.5q40 0 72 -13t54.5 -36.5t34 -55.5t11.5 -69q0 -3 -0.5 -7t-0.5 -8v-9h-274q5 -51 38.5 -75.5t80.5 -24.5q24 0 43 4.5t32 9.5q15 6 26 15zM215 290q-38 0 -64.5 -21t-35.5 -60h193q-5 35 -29.5 58t-63.5 23z" />
    <glyph glyph-name="igrave" unicode="&#xec;" horiz-adv-x="198" 
d="M58 346h82v-346h-82v346zM-17 562v15h97l42 -143v-15h-52z" />
    <glyph glyph-name="iacute" unicode="&#xed;" horiz-adv-x="198" 
d="M124 419h-52v15l43 143h96v-15zM58 346h82v-346h-82v346z" />
    <glyph glyph-name="icircumflex" unicode="&#xee;" horiz-adv-x="198" 
d="M100 518l-93 -99h-52v15l100 143h89l100 -143v-15h-52zM58 346h82v-346h-82v346z" />
    <glyph glyph-name="idieresis" unicode="&#xef;" horiz-adv-x="198" 
d="M-37 483q0 19 14 33t33 14t33 -14t14 -33t-14 -33t-33 -14t-33 14t-14 33zM145 483q0 19 14 33t33 14t33 -14t14 -33t-14 -33t-33 -14t-33 14t-14 33zM58 346h82v-346h-82v346z" />
    <glyph glyph-name="eth" unicode="&#xf0;" horiz-adv-x="468" 
d="M85 434l105 60l-60 95v11h77l45 -71l98 56l27 -46l-96 -55l99 -154q12 -20 22 -38t17 -36.5t11 -39t4 -45.5q0 -41 -14.5 -74.5t-41 -57t-63.5 -36.5t-81 -13t-81 13t-63.5 36.5t-41.5 57t-15 74.5q0 39 14.5 72t41 57.5t63.5 38t83 13.5q13 0 27 -2t22 -4v4
q-5 6 -13.5 17.5t-26.5 40.5l-26 40l-107 -61zM234 58q52 0 85 31.5t33 81.5q0 49 -32 81t-85 32q-54 0 -86.5 -32t-32.5 -81q0 -50 33 -81.5t85 -31.5z" />
    <glyph glyph-name="ntilde" unicode="&#xf1;" horiz-adv-x="457" 
d="M139 0h-82v346h54l10 -49h4q18 26 48.5 41.5t78.5 15.5q73 0 113.5 -42t40.5 -113v-199h-81v188q0 42 -23 70t-68 28q-25 0 -43 -8.5t-29.5 -21t-17 -28t-5.5 -29.5v-199zM294 439q-21 0 -38.5 7t-32.5 15.5t-29 15.5t-28 7q-18 0 -25 -10t-12 -24l-4 -13l-58 6l5 26
q7 32 26 55t59 23q21 0 38 -7t32 -15.5t29 -15.5t28 -7q20 0 27.5 9.5t10.5 23.5l3 13l58 -5l-4 -26q-6 -32 -26 -55t-59 -23z" />
    <glyph glyph-name="ograve" unicode="&#xf2;" horiz-adv-x="446" 
d="M414 171q0 -41 -15 -74.5t-41 -56.5t-61 -35.5t-74 -12.5t-74 12.5t-60.5 35.5t-40.5 56.5t-15 74.5q0 42 15 75.5t40.5 57.5t60.5 37t74 13t74 -13t61 -37t41 -57.5t15 -75.5zM223 58q46 0 78.5 30t32.5 84t-32.5 85t-78.5 31t-78 -31t-32 -85t32 -84t78 -30zM109 562
v15h97l42 -143v-15h-52z" />
    <glyph glyph-name="oacute" unicode="&#xf3;" horiz-adv-x="446" 
d="M247 419h-52v15l43 143h96v-15zM414 171q0 -41 -15 -74.5t-41 -56.5t-61 -35.5t-74 -12.5t-74 12.5t-60.5 35.5t-40.5 56.5t-15 74.5q0 42 15 75.5t40.5 57.5t60.5 37t74 13t74 -13t61 -37t41 -57.5t15 -75.5zM223 58q46 0 78.5 30t32.5 84t-32.5 85t-78.5 31t-78 -31
t-32 -85t32 -84t78 -30z" />
    <glyph glyph-name="ocircumflex" unicode="&#xf4;" horiz-adv-x="446" 
d="M224 518l-93 -99h-52v15l100 143h89l100 -143v-15h-52zM414 171q0 -41 -15 -74.5t-41 -56.5t-61 -35.5t-74 -12.5t-74 12.5t-60.5 35.5t-40.5 56.5t-15 74.5q0 42 15 75.5t40.5 57.5t60.5 37t74 13t74 -13t61 -37t41 -57.5t15 -75.5zM223 58q46 0 78.5 30t32.5 84
t-32.5 85t-78.5 31t-78 -31t-32 -85t32 -84t78 -30z" />
    <glyph glyph-name="otilde" unicode="&#xf5;" horiz-adv-x="446" 
d="M414 171q0 -41 -15 -74.5t-41 -56.5t-61 -35.5t-74 -12.5t-74 12.5t-60.5 35.5t-40.5 56.5t-15 74.5q0 42 15 75.5t40.5 57.5t60.5 37t74 13t74 -13t61 -37t41 -57.5t15 -75.5zM223 58q46 0 78.5 30t32.5 84t-32.5 85t-78.5 31t-78 -31t-32 -85t32 -84t78 -30zM288 439
q-21 0 -38.5 7t-32.5 15.5t-29 15.5t-28 7q-18 0 -25 -10t-12 -24l-4 -13l-58 6l5 26q7 32 26 55t59 23q21 0 38 -7t32 -15.5t29 -15.5t28 -7q20 0 27.5 9.5t10.5 23.5l3 13l58 -5l-4 -26q-6 -32 -26 -55t-59 -23z" />
    <glyph glyph-name="odieresis" unicode="&#xf6;" horiz-adv-x="446" 
d="M87 483q0 19 14 33t33 14t33 -14t14 -33t-14 -33t-33 -14t-33 14t-14 33zM269 483q0 19 14 33t33 14t33 -14t14 -33t-14 -33t-33 -14t-33 14t-14 33zM414 171q0 -41 -15 -74.5t-41 -56.5t-61 -35.5t-74 -12.5t-74 12.5t-60.5 35.5t-40.5 56.5t-15 74.5q0 42 15 75.5
t40.5 57.5t60.5 37t74 13t74 -13t61 -37t41 -57.5t15 -75.5zM223 58q46 0 78.5 30t32.5 84t-32.5 85t-78.5 31t-78 -31t-32 -85t32 -84t78 -30z" />
    <glyph glyph-name="divide" unicode="&#xf7;" horiz-adv-x="502" 
d="M195 141q0 23 16.5 39.5t39.5 16.5t39.5 -16.5t16.5 -39.5t-16.5 -39t-39.5 -16t-39.5 16t-16.5 39zM195 455q0 23 16.5 39.5t39.5 16.5t39.5 -16.5t16.5 -39.5t-16.5 -39t-39.5 -16t-39.5 16t-16.5 39zM54 330h394v-68h-394v68z" />
    <glyph glyph-name="oslash" unicode="&#xf8;" horiz-adv-x="446" 
d="M415 171q0 -41 -15 -74.5t-41 -56.5t-61 -35.5t-74 -12.5q-69 0 -119 35l-38 -38l-30 30l37 37q-19 22 -29.5 51t-10.5 64q0 42 15 75.5t40.5 57.5t60.5 37t74 13q63 0 113 -33l42 42l30 -30l-40 -39q21 -23 33.5 -54t12.5 -69zM224 58q46 0 78.5 30t32.5 84
q0 20 -5.5 37.5t-14.5 31.5l-160 -161q28 -22 69 -22zM114 172q0 -38 15 -63l159 159q-28 20 -64 20q-46 0 -78 -31t-32 -85z" />
    <glyph glyph-name="ugrave" unicode="&#xf9;" horiz-adv-x="455" 
d="M399 0h-54l-14 48h-4q-3 -6 -11.5 -15.5t-23.5 -18.5t-37 -15.5t-52 -6.5q-73 0 -112.5 42t-39.5 113v199h82v-188q0 -42 21.5 -70t66.5 -28q23 0 41 7.5t30 20t18.5 27.5t6.5 30v201h82v-346zM112 562v15h97l42 -143v-15h-52z" />
    <glyph glyph-name="uacute" unicode="&#xfa;" horiz-adv-x="455" 
d="M251 419h-52v15l43 143h96v-15zM399 0h-54l-14 48h-4q-3 -6 -11.5 -15.5t-23.5 -18.5t-37 -15.5t-52 -6.5q-73 0 -112.5 42t-39.5 113v199h82v-188q0 -42 21.5 -70t66.5 -28q23 0 41 7.5t30 20t18.5 27.5t6.5 30v201h82v-346z" />
    <glyph glyph-name="ucircumflex" unicode="&#xfb;" horiz-adv-x="455" 
d="M224 518l-93 -99h-52v15l100 143h89l100 -143v-15h-52zM399 0h-54l-14 48h-4q-3 -6 -11.5 -15.5t-23.5 -18.5t-37 -15.5t-52 -6.5q-73 0 -112.5 42t-39.5 113v199h82v-188q0 -42 21.5 -70t66.5 -28q23 0 41 7.5t30 20t18.5 27.5t6.5 30v201h82v-346z" />
    <glyph glyph-name="udieresis" unicode="&#xfc;" horiz-adv-x="455" 
d="M89 483q0 19 14 33t33 14t33 -14t14 -33t-14 -33t-33 -14t-33 14t-14 33zM271 483q0 19 14 33t33 14t33 -14t14 -33t-14 -33t-33 -14t-33 14t-14 33zM399 0h-54l-14 48h-4q-3 -6 -11.5 -15.5t-23.5 -18.5t-37 -15.5t-52 -6.5q-73 0 -112.5 42t-39.5 113v199h82v-188
q0 -42 21.5 -70t66.5 -28q23 0 41 7.5t30 20t18.5 27.5t6.5 30v201h82v-346z" />
    <glyph glyph-name="yacute" unicode="&#xfd;" horiz-adv-x="409" 
d="M147 -192h-86l106 215l-156 323h89l100 -223q2 -6 3.5 -12t2.5 -14h5q1 8 2.5 14t3.5 12l98 223h84zM233 419h-52v15l43 143h96v-15z" />
    <glyph glyph-name="thorn" unicode="&#xfe;" horiz-adv-x="468" 
d="M138 57v-249h-82v792h82v-309h3q9 17 26 31q14 12 37 22t58 10q37 0 68.5 -12.5t54.5 -36t36 -57t13 -75.5q0 -41 -13.5 -74t-36.5 -57t-54.5 -37t-67.5 -13q-35 0 -58.5 10t-37.5 22q-17 14 -25 33h-3zM134 173q0 -53 31.5 -83t78.5 -30t77 31t30 82q0 50 -30 81.5
t-77 31.5t-78.5 -30t-31.5 -83z" />
    <glyph glyph-name="ydieresis" unicode="&#xff;" horiz-adv-x="409" 
d="M147 -192h-86l106 215l-156 323h89l100 -223q2 -6 3.5 -12t2.5 -14h5q1 8 2.5 14t3.5 12l98 223h84zM71 483q0 19 14 33t33 14t33 -14t14 -33t-14 -33t-33 -14t-33 14t-14 33zM253 483q0 19 14 33t33 14t33 -14t14 -33t-14 -33t-33 -14t-33 14t-14 33z" />
    <glyph glyph-name="Amacron" unicode="&#x100;" horiz-adv-x="611" 
d="M297 600h17l299 -600h-94l-49 98h-329l-49 -98h-93zM310 438h-10l-117 -257l-6 -10h257l-6 10zM171 696h267v-52h-267v52z" />
    <glyph glyph-name="amacron" unicode="&#x101;" 
d="M28 103q0 45 38 75.5t117 30.5q47 0 71.5 -10t33.5 -17h6v17q0 43 -25.5 65.5t-83.5 22.5q-23 0 -41.5 -4.5t-31.5 -9.5q-15 -6 -27 -13l-27 61q14 9 35 16q18 6 44.5 11.5t62.5 5.5q46 0 79 -12t54 -34t30.5 -51.5t9.5 -65.5v-191h-58l-8 40h-5q-4 -5 -12.5 -13.5
t-23.5 -16t-37.5 -13t-54.5 -5.5q-74 0 -110 32.5t-36 78.5zM108 105q0 -23 20.5 -39.5t63.5 -16.5q22 0 40.5 6t31.5 14.5t20.5 18.5t7.5 19q0 23 -27.5 38t-72.5 15q-41 0 -62.5 -14.5t-21.5 -40.5zM73 495h267v-52h-267v52z" />
    <glyph glyph-name="Abreve" unicode="&#x102;" horiz-adv-x="611" 
d="M297 600h17l299 -600h-94l-49 98h-329l-49 -98h-93zM310 438h-10l-117 -257l-6 -10h257l-6 10zM435 806q0 -26 -9.5 -49.5t-26.5 -41t-41 -28t-53 -10.5t-53 10.5t-41 28t-26.5 41t-9.5 49.5h64q0 -30 18.5 -49t47.5 -19q28 0 47 19.5t19 48.5h64z" />
    <glyph glyph-name="abreve" unicode="&#x103;" 
d="M28 103q0 45 38 75.5t117 30.5q47 0 71.5 -10t33.5 -17h6v17q0 43 -25.5 65.5t-83.5 22.5q-23 0 -41.5 -4.5t-31.5 -9.5q-15 -6 -27 -13l-27 61q14 9 35 16q18 6 44.5 11.5t62.5 5.5q46 0 79 -12t54 -34t30.5 -51.5t9.5 -65.5v-191h-58l-8 40h-5q-4 -5 -12.5 -13.5
t-23.5 -16t-37.5 -13t-54.5 -5.5q-74 0 -110 32.5t-36 78.5zM108 105q0 -23 20.5 -39.5t63.5 -16.5q22 0 40.5 6t31.5 14.5t20.5 18.5t7.5 19q0 23 -27.5 38t-72.5 15q-41 0 -62.5 -14.5t-21.5 -40.5zM341 581q0 -26 -9.5 -49.5t-26.5 -41t-41 -28t-53 -10.5t-53 10.5
t-41 28t-26.5 41t-9.5 49.5h64q0 -30 18.5 -49t47.5 -19q28 0 47 19.5t19 48.5h64z" />
    <glyph glyph-name="Aogonek" unicode="&#x104;" horiz-adv-x="611" 
d="M629 -111q-7 -8 -17 -14q-8 -5 -20.5 -9t-29.5 -4q-37 0 -57 19t-20 51q0 23 11.5 40t26.5 28h-4l-49 98h-329l-49 -98h-93l298 600h17l299 -600h-26q-1 0 -9.5 -4t-18 -11t-17.5 -17.5t-8 -25.5q0 -34 36 -34q14 0 25 7q5 3 9 7zM310 438h-10l-117 -257l-6 -10h257
l-6 10z" />
    <glyph glyph-name="aogonek" unicode="&#x105;" 
d="M414 -111q-7 -8 -17 -14q-8 -5 -20.5 -9t-29.5 -4q-37 0 -57 19t-20 51q0 26 13.5 43.5t30.5 28.5l-7 36h-5q-4 -5 -12.5 -13.5t-23.5 -16t-37.5 -13t-54.5 -5.5q-74 0 -110 32.5t-36 78.5q0 45 38 75.5t117 30.5q47 0 71.5 -10t33.5 -17h6v17q0 43 -25.5 65.5
t-83.5 22.5q-23 0 -41.5 -4.5t-31.5 -9.5q-15 -6 -27 -13l-27 61q14 9 35 16q18 6 44.5 11.5t62.5 5.5q46 0 79 -12t54 -34t30.5 -51.5t9.5 -65.5v-191q-16 -6 -27 -14t-19 -18.5t-8 -25.5q0 -34 36 -34q14 0 25 7q5 3 9 7zM108 105q0 -23 20.5 -39.5t63.5 -16.5
q22 0 40.5 6t31.5 14.5t20.5 18.5t7.5 19q0 23 -27.5 38t-72.5 15q-41 0 -62.5 -14.5t-21.5 -40.5z" />
    <glyph glyph-name="Cacute" unicode="&#x106;" horiz-adv-x="589" 
d="M376 655h-52v15l43 143h96v-15zM564 62q-21 -21 -51 -38q-26 -14 -65 -26t-93 -12q-71 0 -128.5 24.5t-99 67t-64 99.5t-22.5 122q0 66 22.5 123.5t64 99.5t99 66.5t128.5 24.5q54 0 93 -12t65 -26q30 -17 51 -38l-47 -64q-19 17 -44 31q-21 11 -50.5 21t-66.5 10
q-51 0 -93.5 -18.5t-73 -50.5t-47.5 -75t-17 -92t17 -91.5t47.5 -74.5t73 -50.5t93.5 -18.5q38 0 67.5 9.5t50.5 21.5q25 13 43 31z" />
    <glyph glyph-name="cacute" unicode="&#x107;" horiz-adv-x="363" 
d="M248 419h-52v15l43 143h96v-15zM225 -8q-42 0 -77.5 13.5t-61 37.5t-39.5 57t-14 72q0 40 14 73.5t39.5 57.5t61 37.5t77.5 13.5q28 0 49.5 -5t35.5 -10q17 -7 29 -15l-24 -61q-10 6 -22 11q-11 5 -26.5 8.5t-34.5 3.5q-49 0 -83 -30.5t-34 -83.5q0 -52 34 -82t83 -30
q19 0 34.5 3t26.5 8q12 5 22 12l22 -61q-11 -9 -28 -15q-14 -6 -35 -10.5t-49 -4.5z" />
    <glyph glyph-name="Cdotaccent" unicode="&#x10a;" horiz-adv-x="589" 
d="M564 62q-21 -21 -51 -38q-26 -14 -65 -26t-93 -12q-71 0 -128.5 24.5t-99 67t-64 99.5t-22.5 122q0 66 22.5 123.5t64 99.5t99 66.5t128.5 24.5q54 0 93 -12t65 -26q30 -17 51 -38l-47 -64q-19 17 -44 31q-21 11 -50.5 21t-66.5 10q-51 0 -93.5 -18.5t-73 -50.5
t-47.5 -75t-17 -92t17 -91.5t47.5 -74.5t73 -50.5t93.5 -18.5q38 0 67.5 9.5t50.5 21.5q25 13 43 31zM294 750q0 26 16.5 42.5t41.5 16.5q24 0 40.5 -16.5t16.5 -42.5q0 -24 -16.5 -40.5t-40.5 -16.5q-25 0 -41.5 16.5t-16.5 40.5z" />
    <glyph glyph-name="cdotaccent" unicode="&#x10b;" horiz-adv-x="363" 
d="M225 -8q-42 0 -77.5 13.5t-61 37.5t-39.5 57t-14 72q0 40 14 73.5t39.5 57.5t61 37.5t77.5 13.5q28 0 49.5 -5t35.5 -10q17 -7 29 -15l-24 -61q-10 6 -22 11q-11 5 -26.5 8.5t-34.5 3.5q-49 0 -83 -30.5t-34 -83.5q0 -52 34 -82t83 -30q19 0 34.5 3t26.5 8q12 5 22 12
l22 -61q-11 -9 -28 -15q-14 -6 -35 -10.5t-49 -4.5zM168 510q0 26 16.5 42.5t41.5 16.5q24 0 40.5 -16.5t16.5 -42.5q0 -24 -16.5 -40.5t-40.5 -16.5q-25 0 -41.5 16.5t-16.5 40.5z" />
    <glyph glyph-name="Ccaron" unicode="&#x10c;" horiz-adv-x="589" 
d="M442 811h52v-15l-100 -143h-89l-100 143v15h52l93 -99zM564 62q-21 -21 -51 -38q-26 -14 -65 -26t-93 -12q-71 0 -128.5 24.5t-99 67t-64 99.5t-22.5 122q0 66 22.5 123.5t64 99.5t99 66.5t128.5 24.5q54 0 93 -12t65 -26q30 -17 51 -38l-47 -64q-19 17 -44 31
q-21 11 -50.5 21t-66.5 10q-51 0 -93.5 -18.5t-73 -50.5t-47.5 -75t-17 -92t17 -91.5t47.5 -74.5t73 -50.5t93.5 -18.5q38 0 67.5 9.5t50.5 21.5q25 13 43 31z" />
    <glyph glyph-name="ccaron" unicode="&#x10d;" horiz-adv-x="363" 
d="M306 577h52v-15l-100 -143h-89l-100 143v15h52l93 -99zM225 -8q-42 0 -77.5 13.5t-61 37.5t-39.5 57t-14 72q0 40 14 73.5t39.5 57.5t61 37.5t77.5 13.5q28 0 49.5 -5t35.5 -10q17 -7 29 -15l-24 -61q-10 6 -22 11q-11 5 -26.5 8.5t-34.5 3.5q-49 0 -83 -30.5t-34 -83.5
q0 -52 34 -82t83 -30q19 0 34.5 3t26.5 8q12 5 22 12l22 -61q-11 -9 -28 -15q-14 -6 -35 -10.5t-49 -4.5z" />
    <glyph glyph-name="Dcaron" unicode="&#x10e;" horiz-adv-x="660" 
d="M402 811h52v-15l-100 -143h-89l-100 143v15h52l93 -99zM617 300q0 -68 -23 -123.5t-65 -94.5t-100.5 -60.5t-130.5 -21.5h-215v600h215q72 0 130.5 -21.5t100.5 -60.5t65 -94.5t23 -123.5zM165 525v-450h127q51 0 95.5 15t76.5 44t50.5 70.5t18.5 95.5t-18.5 95.5
t-50.5 70.5t-76.5 44t-95.5 15h-127z" />
    <glyph glyph-name="dcaron" unicode="&#x10f;" horiz-adv-x="468" 
d="M455 616q0 23 15.5 38.5t42.5 15.5q26 0 42.5 -16.5t17.5 -43.5q0 -26 -20 -61l-27 -48h-58l24 40q3 5 6 9t5 6l5 5v3q-25 2 -39 16.5t-14 35.5zM329 306v362h82v-668h-56l-12 51h-4q-10 -17 -28 -30q-15 -11 -40.5 -20t-62.5 -9t-69 12.5t-55.5 36t-37 57t-13.5 75.5
q0 40 13 73.5t36.5 57.5t55 37t67.5 13q35 0 58 -7.5t37 -16.5q17 -11 26 -24h3zM334 173q0 53 -32 83t-78 30q-47 0 -77.5 -31t-30.5 -82q0 -50 30.5 -81.5t77.5 -31.5q46 0 78 30t32 83z" />
    <glyph glyph-name="Dcroat" unicode="&#x110;" horiz-adv-x="668" 
d="M16 329h75v271h215q72 0 130.5 -21.5t100.5 -60.5t65 -94.5t23 -123.5t-23 -123.5t-65 -94.5t-100.5 -60.5t-130.5 -21.5h-215v270h-75v59zM173 525v-196h122v-59h-122v-195h127q51 0 95.5 15t76.5 44t50.5 70.5t18.5 95.5t-18.5 95.5t-50.5 70.5t-76.5 44t-95.5 15h-127
z" />
    <glyph glyph-name="dcroat" unicode="&#x111;" horiz-adv-x="468" 
d="M198 507h131v161h82v-161h55v-50h-55v-457h-56l-12 51h-4q-10 -17 -28 -30q-15 -11 -40.5 -20t-62.5 -9t-69 12.5t-55.5 36t-37 57t-13.5 75.5q0 40 13 73.5t36.5 57.5t55 37t67.5 13q35 0 58 -7.5t37 -16.5q17 -11 26 -24h3v151h-131v50zM334 173q0 53 -32 83t-78 30
q-47 0 -77.5 -31t-30.5 -82q0 -50 30.5 -81.5t77.5 -31.5q46 0 78 30t32 83z" />
    <glyph glyph-name="Emacron" unicode="&#x112;" horiz-adv-x="567" 
d="M481 260h-316v-185h364v-75h-446v600h446v-75h-364v-192h316v-73zM180 739h267v-52h-267v52z" />
    <glyph glyph-name="emacron" unicode="&#x113;" horiz-adv-x="416" 
d="M361 31q-14 -11 -33 -20q-17 -8 -41.5 -14t-56.5 -6q-45 0 -81.5 13.5t-62 37.5t-39.5 57.5t-14 72.5t13.5 72.5t37.5 58t57.5 38t74.5 13.5q40 0 72 -13t54.5 -36.5t34 -55.5t11.5 -69q0 -3 -0.5 -7t-0.5 -8v-9h-274q5 -51 38.5 -75.5t80.5 -24.5q24 0 43 4.5t32 9.5
q15 6 26 15zM215 290q-38 0 -64.5 -21t-35.5 -60h193q-5 35 -29.5 58t-63.5 23zM85 495h267v-52h-267v52z" />
    <glyph glyph-name="Edotaccent" unicode="&#x116;" horiz-adv-x="567" 
d="M481 260h-316v-185h364v-75h-446v600h446v-75h-364v-192h316v-73zM257 735q0 26 16.5 42.5t41.5 16.5q24 0 40.5 -16.5t16.5 -42.5q0 -24 -16.5 -40.5t-40.5 -16.5q-25 0 -41.5 16.5t-16.5 40.5z" />
    <glyph glyph-name="edotaccent" unicode="&#x117;" horiz-adv-x="416" 
d="M361 31q-14 -11 -33 -20q-17 -8 -41.5 -14t-56.5 -6q-45 0 -81.5 13.5t-62 37.5t-39.5 57.5t-14 72.5t13.5 72.5t37.5 58t57.5 38t74.5 13.5q40 0 72 -13t54.5 -36.5t34 -55.5t11.5 -69q0 -3 -0.5 -7t-0.5 -8v-9h-274q5 -51 38.5 -75.5t80.5 -24.5q24 0 43 4.5t32 9.5
q15 6 26 15zM215 290q-38 0 -64.5 -21t-35.5 -60h193q-5 35 -29.5 58t-63.5 23zM160 510q0 26 16.5 42.5t41.5 16.5q24 0 40.5 -16.5t16.5 -42.5q0 -24 -16.5 -40.5t-40.5 -16.5q-25 0 -41.5 16.5t-16.5 40.5z" />
    <glyph glyph-name="Eogonek" unicode="&#x118;" horiz-adv-x="567" 
d="M481 260h-316v-185h364v-75h-40q-1 0 -9.5 -4t-18 -11t-17.5 -17.5t-8 -25.5q0 -34 36 -34q14 0 25 7q5 3 9 7l25 -33q-7 -8 -17 -14q-8 -5 -20.5 -9t-29.5 -4q-37 0 -57 19t-20 51q0 23 11.5 40t26.5 28h-342v600h446v-75h-364v-192h316v-73z" />
    <glyph glyph-name="eogonek" unicode="&#x119;" horiz-adv-x="416" 
d="M361 31q-6 -6 -14 -10q-14 -9 -39 -18q-5 -2 -13 -6.5t-15.5 -11t-12.5 -16t-5 -21.5q0 -34 36 -34q14 0 25 7q5 3 9 7l25 -33q-7 -8 -17 -14q-8 -5 -20.5 -9t-29.5 -4q-37 0 -57 19t-20 51q0 17 6 30t15 23h-4q-45 0 -81.5 13.5t-62 37.5t-39.5 57.5t-14 72.5t13.5 72.5
t37.5 58t57.5 38t74.5 13.5q40 0 72 -13t54.5 -36.5t34 -55.5t11.5 -69q0 -3 -0.5 -7t-0.5 -8v-9h-274q5 -51 38.5 -75.5t80.5 -24.5q24 0 43 4.5t32 9.5q15 6 26 15zM215 290q-38 0 -64.5 -21t-35.5 -60h193q-5 35 -29.5 58t-63.5 23z" />
    <glyph glyph-name="Ecaron" unicode="&#x11a;" horiz-adv-x="567" 
d="M402 803h52v-15l-100 -143h-89l-100 143v15h52l93 -99zM481 260h-316v-185h364v-75h-446v600h446v-75h-364v-192h316v-73z" />
    <glyph glyph-name="ecaron" unicode="&#x11b;" horiz-adv-x="416" 
d="M308 577h52v-15l-100 -143h-89l-100 143v15h52l93 -99zM361 31q-14 -11 -33 -20q-17 -8 -41.5 -14t-56.5 -6q-45 0 -81.5 13.5t-62 37.5t-39.5 57.5t-14 72.5t13.5 72.5t37.5 58t57.5 38t74.5 13.5q40 0 72 -13t54.5 -36.5t34 -55.5t11.5 -69q0 -3 -0.5 -7t-0.5 -8v-9
h-274q5 -51 38.5 -75.5t80.5 -24.5q24 0 43 4.5t32 9.5q15 6 26 15zM215 290q-38 0 -64.5 -21t-35.5 -60h193q-5 35 -29.5 58t-63.5 23z" />
    <glyph glyph-name="Gbreve" unicode="&#x11e;" horiz-adv-x="666" 
d="M337 333h297v-46q0 -68 -19 -123.5t-55 -95t-88.5 -61t-119.5 -21.5q-72 0 -130 24.5t-98 67t-61.5 99.5t-21.5 122q0 66 22 123.5t63 99.5t99 66.5t130 24.5q58 0 99.5 -12.5t69.5 -26.5q32 -18 54 -39l-49 -63q-19 17 -45 31q-23 12 -55 22t-74 10q-53 0 -95.5 -18.5
t-72.5 -50.5t-46 -75t-16 -92t15.5 -91.5t44.5 -74.5t71 -50.5t95 -18.5q44 0 80 14t62 38.5t40.5 59t15.5 76.5v8h-212v73zM482 806q0 -26 -9.5 -49.5t-26.5 -41t-41 -28t-53 -10.5t-53 10.5t-41 28t-26.5 41t-9.5 49.5h64q0 -30 18.5 -49t47.5 -19q28 0 47 19.5t19 48.5
h64z" />
    <glyph glyph-name="gbreve" unicode="&#x11f;" horiz-adv-x="414" 
d="M218 -237q-94 0 -141.5 36t-47.5 91q0 31 15 56t49 41v5q-32 14 -45.5 33.5t-13.5 43.5q0 25 12.5 44t43.5 35q-24 30 -24 74q0 28 11 52.5t30 41.5t45.5 27t58.5 10q11 0 40.5 -1t61.5 -3q37 -2 81 -4v-58h-60v-5q6 -4 11 -13q4 -8 7.5 -20t3.5 -31q0 -24 -10 -46.5
t-29 -39.5t-46 -27t-60 -10q-43 0 -77 17q-28 -13 -28 -35q0 -10 5 -18t17.5 -13.5t34 -8.5t55.5 -3q99 0 144.5 -35.5t45.5 -96.5q0 -30 -12.5 -55t-36.5 -44t-59.5 -29.5t-81.5 -10.5zM218 -31q-57 0 -84 -21.5t-27 -50.5t27 -50.5t84 -21.5t83.5 21t26.5 51
q0 29 -26.5 50.5t-83.5 21.5zM211 291q-37 0 -57 -19.5t-20 -48.5t20 -48.5t57 -19.5t57 19.5t20 48.5t-20 48.5t-57 19.5zM342 581q0 -26 -9.5 -49.5t-26.5 -41t-41 -28t-53 -10.5t-53 10.5t-41 28t-26.5 41t-9.5 49.5h64q0 -30 18.5 -49t47.5 -19q28 0 47 19.5t19 48.5h64
z" />
    <glyph glyph-name="Gdotaccent" unicode="&#x120;" horiz-adv-x="666" 
d="M337 333h297v-46q0 -68 -19 -123.5t-55 -95t-88.5 -61t-119.5 -21.5q-72 0 -130 24.5t-98 67t-61.5 99.5t-21.5 122q0 66 22 123.5t63 99.5t99 66.5t130 24.5q58 0 99.5 -12.5t69.5 -26.5q32 -18 54 -39l-49 -63q-19 17 -45 31q-23 12 -55 22t-74 10q-53 0 -95.5 -18.5
t-72.5 -50.5t-46 -75t-16 -92t15.5 -91.5t44.5 -74.5t71 -50.5t95 -18.5q44 0 80 14t62 38.5t40.5 59t15.5 76.5v8h-212v73zM292 735q0 26 16.5 42.5t41.5 16.5q24 0 40.5 -16.5t16.5 -42.5q0 -24 -16.5 -40.5t-40.5 -16.5q-25 0 -41.5 16.5t-16.5 40.5z" />
    <glyph glyph-name="gdotaccent" unicode="&#x121;" horiz-adv-x="414" 
d="M218 -237q-94 0 -141.5 36t-47.5 91q0 31 15 56t49 41v5q-32 14 -45.5 33.5t-13.5 43.5q0 25 12.5 44t43.5 35q-24 30 -24 74q0 28 11 52.5t30 41.5t45.5 27t58.5 10q11 0 40.5 -1t61.5 -3q37 -2 81 -4v-58h-60v-5q6 -4 11 -13q4 -8 7.5 -20t3.5 -31q0 -24 -10 -46.5
t-29 -39.5t-46 -27t-60 -10q-43 0 -77 17q-28 -13 -28 -35q0 -10 5 -18t17.5 -13.5t34 -8.5t55.5 -3q99 0 144.5 -35.5t45.5 -96.5q0 -30 -12.5 -55t-36.5 -44t-59.5 -29.5t-81.5 -10.5zM218 -31q-57 0 -84 -21.5t-27 -50.5t27 -50.5t84 -21.5t83.5 21t26.5 51
q0 29 -26.5 50.5t-83.5 21.5zM211 291q-37 0 -57 -19.5t-20 -48.5t20 -48.5t57 -19.5t57 19.5t20 48.5t-20 48.5t-57 19.5zM155 510q0 26 16.5 42.5t41.5 16.5q24 0 40.5 -16.5t16.5 -42.5q0 -24 -16.5 -40.5t-40.5 -16.5q-25 0 -41.5 16.5t-16.5 40.5z" />
    <glyph glyph-name="uni0122" unicode="&#x122;" horiz-adv-x="666" 
d="M293 -90q0 23 15.5 38.5t42.5 15.5q26 0 42.5 -16.5t17.5 -43.5q0 -26 -20 -61l-27 -48h-58l24 40q3 5 6 9t5 6l5 5v3q-25 2 -39 16.5t-14 35.5zM337 333h297v-46q0 -68 -19 -123.5t-55 -95t-88.5 -61t-119.5 -21.5q-72 0 -130 24.5t-98 67t-61.5 99.5t-21.5 122
q0 66 22 123.5t63 99.5t99 66.5t130 24.5q58 0 99.5 -12.5t69.5 -26.5q32 -18 54 -39l-49 -63q-19 17 -45 31q-23 12 -55 22t-74 10q-53 0 -95.5 -18.5t-72.5 -50.5t-46 -75t-16 -92t15.5 -91.5t44.5 -74.5t71 -50.5t95 -18.5q44 0 80 14t62 38.5t40.5 59t15.5 76.5v8h-212
v73z" />
    <glyph glyph-name="uni0123" unicode="&#x123;" horiz-adv-x="414" 
d="M270 475q0 -23 -15.5 -38.5t-42.5 -15.5q-26 0 -42.5 16.5t-17.5 43.5q0 26 20 61l27 48h58l-24 -40q-5 -9 -11 -15l-5 -5v-3q25 -2 39 -16.5t14 -35.5zM218 -237q-94 0 -141.5 36t-47.5 91q0 31 15 56t49 41v5q-32 14 -45.5 33.5t-13.5 43.5q0 25 12.5 44t43.5 35
q-24 30 -24 74q0 28 11 52.5t30 41.5t45.5 27t58.5 10q11 0 40.5 -1t61.5 -3q37 -2 81 -4v-58h-60v-5q6 -4 11 -13q4 -8 7.5 -20t3.5 -31q0 -24 -10 -46.5t-29 -39.5t-46 -27t-60 -10q-43 0 -77 17q-28 -13 -28 -35q0 -10 5 -18t17.5 -13.5t34 -8.5t55.5 -3
q99 0 144.5 -35.5t45.5 -96.5q0 -30 -12.5 -55t-36.5 -44t-59.5 -29.5t-81.5 -10.5zM218 -31q-57 0 -84 -21.5t-27 -50.5t27 -50.5t84 -21.5t83.5 21t26.5 51q0 29 -26.5 50.5t-83.5 21.5zM211 291q-37 0 -57 -19.5t-20 -48.5t20 -48.5t57 -19.5t57 19.5t20 48.5t-20 48.5
t-57 19.5z" />
    <glyph glyph-name="Hbar" unicode="&#x126;" horiz-adv-x="682" 
d="M597 503h31v-57h-31v-446h-83v258h-345v-258h-82v446h-35v57h35v97h82v-97h345v97h83v-97zM514 332v114h-345v-114h345z" />
    <glyph glyph-name="hbar" unicode="&#x127;" horiz-adv-x="459" 
d="M3 507h54v161h82v-161h132v-50h-132v-143h3q17 16 43 28t69 12q72 0 112 -42t40 -113v-199h-81v188q0 43 -23 70.5t-68 27.5q-24 0 -41 -7.5t-29 -19t-18 -26t-7 -28.5v-205h-82v457h-54v50z" />
    <glyph glyph-name="Itilde" unicode="&#x128;" horiz-adv-x="248" 
d="M165 0h-82v600h82v-600zM194 660q-21 0 -38.5 7t-32.5 15.5t-29 15.5t-28 7q-18 0 -25 -10t-12 -24l-4 -13l-58 6l5 26q7 32 26 55t59 23q21 0 38 -7t32 -15.5t29 -15.5t28 -7q20 0 27.5 9.5t10.5 23.5l3 13l58 -5l-4 -26q-6 -32 -26 -55t-59 -23z" />
    <glyph glyph-name="itilde" unicode="&#x129;" horiz-adv-x="198" 
d="M58 346h82v-346h-82v346zM167 439q-21 0 -38.5 7t-32.5 15.5t-29 15.5t-28 7q-18 0 -25 -10t-12 -24l-4 -13l-58 6l5 26q7 32 26 55t59 23q21 0 38 -7t32 -15.5t29 -15.5t28 -7q20 0 27.5 9.5t10.5 23.5l3 13l58 -5l-4 -26q-6 -32 -26 -55t-59 -23z" />
    <glyph glyph-name="Imacron" unicode="&#x12a;" horiz-adv-x="248" 
d="M165 0h-82v600h82v-600zM-10 715h267v-52h-267v52z" />
    <glyph glyph-name="imacron" unicode="&#x12b;" horiz-adv-x="198" 
d="M58 346h82v-346h-82v346zM-35 495h267v-52h-267v52z" />
    <glyph glyph-name="Iogonek" unicode="&#x12e;" horiz-adv-x="248" 
d="M206 -111q-7 -8 -17 -14q-8 -5 -20.5 -9t-29.5 -4q-37 0 -57 19t-20 51q0 23 11.5 40t26.5 28h-17v600h82v-600q-16 -6 -27 -14t-19 -18.5t-8 -25.5q0 -34 36 -34q14 0 25 7q5 3 9 7z" />
    <glyph glyph-name="iogonek" unicode="&#x12f;" horiz-adv-x="199" 
d="M59 346h82v-346q-16 -6 -27 -14t-19 -18.5t-8 -25.5q0 -34 36 -34q14 0 25 7q5 3 9 7l25 -33q-7 -8 -17 -14q-8 -5 -20.5 -9t-29.5 -4q-37 0 -57 19t-20 51q0 23 11.5 40t26.5 28h-17v346zM100 478q-21 0 -35.5 14.5t-14.5 35.5t14.5 36t35.5 15t36 -15t15 -36t-15 -35.5
t-36 -14.5z" />
    <glyph glyph-name="Idotaccent" unicode="&#x130;" horiz-adv-x="248" 
d="M165 0h-82v600h82v-600zM67 734q0 26 16.5 42.5t41.5 16.5q24 0 40.5 -16.5t16.5 -42.5q0 -24 -16.5 -40.5t-40.5 -16.5q-25 0 -41.5 16.5t-16.5 40.5z" />
    <glyph glyph-name="dotlessi" unicode="&#x131;" horiz-adv-x="199" 
d="M58 346h82v-346h-82v346z" />
    <glyph glyph-name="IJ" unicode="&#x132;" horiz-adv-x="768" 
d="M165 0h-82v600h82v-600zM370 100q14 -10 31 -17q14 -7 34 -12t43 -5q63 0 96.5 34t33.5 112v388h83v-405q0 -98 -51.5 -153.5t-154.5 -55.5q-37 0 -65 7t-47.5 16t-30 17t-11.5 9z" />
    <glyph glyph-name="ij" unicode="&#x133;" horiz-adv-x="448" 
d="M99 478q-21 0 -35.5 14.5t-14.5 35.5t14.5 36t35.5 15t36 -15t15 -36t-15 -35.5t-36 -14.5zM58 346h82v-346h-82v346zM236 -123q5 -3 10 -5t11 -3t13 -1q40 0 40 50v428h83v-431q0 -56 -24 -86t-80 -30q-16 0 -28.5 2.5t-20.5 5.5q-11 4 -18 9zM351 478q-21 0 -36 14.5
t-15 35.5t15 36t36 15q22 0 36 -15t14 -36t-14 -35.5t-36 -14.5z" />
    <glyph glyph-name="uni0136" unicode="&#x136;" horiz-adv-x="601" 
d="M262 -90q0 23 15.5 38.5t42.5 15.5q26 0 42.5 -16.5t17.5 -43.5q0 -26 -20 -61l-27 -48h-58l24 40q3 5 6 9t5 6l5 5v3q-25 2 -39 16.5t-14 35.5zM165 280l321 320h100v-12l-239 -240l239 -336v-12h-97l-202 288l-122 -123v-165h-82v600h82v-320z" />
    <glyph glyph-name="uni0137" unicode="&#x137;" horiz-adv-x="401" 
d="M150 -90q0 23 15.5 38.5t42.5 15.5q26 0 42.5 -16.5t17.5 -43.5q0 -26 -20 -61l-27 -48h-58l24 40q3 5 6 9t5 6l5 5v3q-25 2 -39 16.5t-14 35.5zM374 346l-154 -169l176 -177h-109l-146 153h-3v-153h-82v668h82v-476h3l137 154h96z" />
    <glyph glyph-name="kgreenlandic" unicode="&#x138;" horiz-adv-x="402" 
d="M373 346l-153 -169l176 -177h-109l-147 153h-2v-153h-82v346h82v-154h2l139 154h94z" />
    <glyph glyph-name="Lacute" unicode="&#x139;" horiz-adv-x="520" 
d="M150 638h-52v15l43 143h96v-15zM83 0v600h82v-525h343v-75h-425z" />
    <glyph glyph-name="lacute" unicode="&#x13a;" horiz-adv-x="198" 
d="M124 717h-52v15l43 143h96v-15zM58 668h82v-668h-82v668z" />
    <glyph glyph-name="uni013B" unicode="&#x13b;" horiz-adv-x="520" 
d="M231 -90q0 23 15.5 38.5t42.5 15.5q26 0 42.5 -16.5t17.5 -43.5q0 -26 -20 -61l-27 -48h-58l24 40q3 5 6 9t5 6l5 5v3q-25 2 -39 16.5t-14 35.5zM83 0v600h82v-525h343v-75h-425z" />
    <glyph glyph-name="uni013C" unicode="&#x13c;" horiz-adv-x="198" 
d="M43 -90q0 23 15.5 38.5t42.5 15.5q26 0 42.5 -16.5t17.5 -43.5q0 -26 -20 -61l-27 -48h-58l24 40q3 5 6 9t5 6l5 5v3q-25 2 -39 16.5t-14 35.5zM58 668h82v-668h-82v668z" />
    <glyph glyph-name="Lcaron" unicode="&#x13d;" horiz-adv-x="521" 
d="M324 546q0 23 15.5 38.5t42.5 15.5q26 0 42.5 -16.5t17.5 -43.5q0 -26 -20 -61l-27 -48h-58l24 40q3 5 6 9t5 6l5 5v3q-25 2 -39 16.5t-14 35.5zM83 0v600h82v-525h343v-75h-425z" />
    <glyph glyph-name="lcaron" unicode="&#x13e;" horiz-adv-x="198" 
d="M183 616q0 23 15.5 38.5t42.5 15.5q26 0 42.5 -16.5t17.5 -43.5q0 -26 -20 -61l-27 -48h-58l24 40q3 5 6 9t5 6l5 5v3q-25 2 -39 16.5t-14 35.5zM58 668h82v-668h-82v668z" />
    <glyph glyph-name="Ldot" unicode="&#x13f;" horiz-adv-x="521" 
d="M83 0v600h82v-525h343v-75h-425zM333 344q0 26 16.5 42.5t41.5 16.5q24 0 40.5 -16.5t16.5 -42.5q0 -24 -16.5 -40.5t-40.5 -16.5q-25 0 -41.5 16.5t-16.5 40.5z" />
    <glyph glyph-name="ldot" unicode="&#x140;" horiz-adv-x="311" 
d="M58 668h82v-668h-82v668zM196 290q0 26 16.5 42.5t41.5 16.5q24 0 40.5 -16.5t16.5 -42.5q0 -24 -16.5 -40.5t-40.5 -16.5q-25 0 -41.5 16.5t-16.5 40.5z" />
    <glyph glyph-name="Lslash" unicode="&#x141;" horiz-adv-x="529" 
d="M9 263l83 48v289h82v-242l112 65l23 -40l-135 -78v-230h343v-75h-425v258l-60 -34z" />
    <glyph glyph-name="lslash" unicode="&#x142;" horiz-adv-x="265" 
d="M13 259l89 51v358h82v-311l75 43l21 -36l-96 -56v-308h-82v261l-67 -38z" />
    <glyph glyph-name="Nacute" unicode="&#x143;" horiz-adv-x="696" 
d="M368 638h-52v15l43 143h96v-15zM614 0h-23l-426 431v-431h-82v600h23l425 -426v426h83v-600z" />
    <glyph glyph-name="nacute" unicode="&#x144;" horiz-adv-x="457" 
d="M269 419h-52v15l43 143h96v-15zM139 0h-82v346h54l10 -49h4q18 26 48.5 41.5t78.5 15.5q73 0 113.5 -42t40.5 -113v-199h-81v188q0 42 -23 70t-68 28q-25 0 -43 -8.5t-29.5 -21t-17 -28t-5.5 -29.5v-199z" />
    <glyph glyph-name="uni0145" unicode="&#x145;" horiz-adv-x="696" 
d="M303 -90q0 23 15.5 38.5t42.5 15.5q26 0 42.5 -16.5t17.5 -43.5q0 -26 -20 -61l-27 -48h-58l24 40q3 5 6 9t5 6l5 5v3q-25 2 -39 16.5t-14 35.5zM614 0h-23l-426 431v-431h-82v600h23l425 -426v426h83v-600z" />
    <glyph glyph-name="uni0146" unicode="&#x146;" horiz-adv-x="457" 
d="M173 -90q0 23 15.5 38.5t42.5 15.5q26 0 42.5 -16.5t17.5 -43.5q0 -26 -20 -61l-27 -48h-58l24 40q3 5 6 9t5 6l5 5v3q-25 2 -39 16.5t-14 35.5zM139 0h-82v346h54l10 -49h4q18 26 48.5 41.5t78.5 15.5q73 0 113.5 -42t40.5 -113v-199h-81v188q0 42 -23 70t-68 28
q-25 0 -43 -8.5t-29.5 -21t-17 -28t-5.5 -29.5v-199z" />
    <glyph glyph-name="Ncaron" unicode="&#x147;" horiz-adv-x="696" 
d="M442 796h52v-15l-100 -143h-89l-100 143v15h52l93 -99zM614 0h-23l-426 431v-431h-82v600h23l425 -426v426h83v-600z" />
    <glyph glyph-name="ncaron" unicode="&#x148;" horiz-adv-x="457" 
d="M323 577h52v-15l-100 -143h-89l-100 143v15h52l93 -99zM139 0h-82v346h54l10 -49h4q18 26 48.5 41.5t78.5 15.5q73 0 113.5 -42t40.5 -113v-199h-81v188q0 42 -23 70t-68 28q-25 0 -43 -8.5t-29.5 -21t-17 -28t-5.5 -29.5v-199z" />
    <glyph glyph-name="Eng" unicode="&#x14a;" horiz-adv-x="696" 
d="M614 -82q0 -57 -26 -88t-83 -31q-17 0 -31 3t-24 7q-11 4 -21 11l22 61q5 -3 11 -5q12 -5 26 -5q43 0 43 53v136l-366 371v-431h-82v600h23l425 -426v426h83v-682z" />
    <glyph glyph-name="eng" unicode="&#x14b;" horiz-adv-x="457" 
d="M139 0h-82v346h54l10 -49h4q18 26 48.5 41.5t78.5 15.5q73 0 113.5 -42t40.5 -113v-277q0 -56 -25.5 -87t-82.5 -31q-17 0 -30.5 3t-23.5 7q-11 4 -21 10l22 62q5 -3 11 -6q12 -5 27 -5q42 0 42 56v257q0 42 -23 70t-68 28q-25 0 -43 -8.5t-29.5 -21t-17 -28t-5.5 -29.5
v-199z" />
    <glyph glyph-name="Omacron" unicode="&#x14c;" horiz-adv-x="706" 
d="M218 725h267v-52h-267v52zM352 -14q-71 0 -128.5 24.5t-98 67t-62.5 99.5t-22 122q0 66 22 123.5t62.5 99.5t98 66.5t128.5 24.5q72 0 130 -24.5t98.5 -66.5t62.5 -99.5t22 -123.5q0 -65 -22 -122t-62.5 -99.5t-98.5 -67t-130 -24.5zM352 65q52 0 94.5 18.5t72.5 50
t46 74t16 91.5t-16 92t-46 75t-72.5 50.5t-94.5 18.5t-94 -18.5t-71.5 -50.5t-45.5 -75t-16 -92t16 -91.5t45.5 -74t71.5 -50t94 -18.5z" />
    <glyph glyph-name="omacron" unicode="&#x14d;" horiz-adv-x="446" 
d="M89 495h267v-52h-267v52zM414 171q0 -41 -15 -74.5t-41 -56.5t-61 -35.5t-74 -12.5t-74 12.5t-60.5 35.5t-40.5 56.5t-15 74.5q0 42 15 75.5t40.5 57.5t60.5 37t74 13t74 -13t61 -37t41 -57.5t15 -75.5zM223 58q46 0 78.5 30t32.5 84t-32.5 85t-78.5 31t-78 -31t-32 -85
t32 -84t78 -30z" />
    <glyph glyph-name="Ohungarumlaut" unicode="&#x150;" horiz-adv-x="706" 
d="M294 637h-52v15l43 143h86v-15zM458 637h-53v15l43 143h87v-15zM352 -14q-71 0 -128.5 24.5t-98 67t-62.5 99.5t-22 122q0 66 22 123.5t62.5 99.5t98 66.5t128.5 24.5q72 0 130 -24.5t98.5 -66.5t62.5 -99.5t22 -123.5q0 -65 -22 -122t-62.5 -99.5t-98.5 -67t-130 -24.5z
M352 65q52 0 94.5 18.5t72.5 50t46 74t16 91.5t-16 92t-46 75t-72.5 50.5t-94.5 18.5t-94 -18.5t-71.5 -50.5t-45.5 -75t-16 -92t16 -91.5t45.5 -74t71.5 -50t94 -18.5z" />
    <glyph glyph-name="ohungarumlaut" unicode="&#x151;" horiz-adv-x="446" 
d="M168 419h-52v15l43 143h86v-15zM332 419h-53v15l43 143h87v-15zM414 171q0 -41 -15 -74.5t-41 -56.5t-61 -35.5t-74 -12.5t-74 12.5t-60.5 35.5t-40.5 56.5t-15 74.5q0 42 15 75.5t40.5 57.5t60.5 37t74 13t74 -13t61 -37t41 -57.5t15 -75.5zM223 58q46 0 78.5 30
t32.5 84t-32.5 85t-78.5 31t-78 -31t-32 -85t32 -84t78 -30z" />
    <glyph glyph-name="OE" unicode="&#x152;" horiz-adv-x="1066" 
d="M352 -14q-71 0 -128.5 24.5t-98 67t-62.5 99.5t-22 122q0 66 22 123.5t62.5 99.5t98 66.5t128.5 24.5q73 0 130.5 -24.5t99.5 -68.5v80h446v-75h-364v-192h316v-73h-316v-185h364v-75h-446v79q-42 -44 -99.5 -68.5t-130.5 -24.5zM352 65q52 0 94.5 18.5t72.5 50t46 74
t16 91.5t-16 92t-46 75t-72.5 50.5t-94.5 18.5t-94 -18.5t-71.5 -50.5t-45.5 -75t-16 -92t16 -91.5t45.5 -74t71.5 -50t94 -18.5z" />
    <glyph glyph-name="oe" unicode="&#x153;" horiz-adv-x="718" 
d="M663 31q-14 -11 -33 -20q-17 -8 -41.5 -14t-56.5 -6q-52 0 -92 17.5t-66 48.5q-26 -32 -65.5 -48.5t-85.5 -16.5q-39 0 -74 12.5t-60.5 35.5t-40.5 56.5t-15 74.5q0 42 15 75.5t40.5 57.5t60.5 37t74 13q46 0 85 -17t65 -49q25 31 61.5 48.5t83.5 17.5q40 0 72 -13
t54.5 -36.5t34 -55.5t11.5 -69q0 -3 -0.5 -7t-0.5 -8v-9h-274q5 -51 38.5 -75.5t80.5 -24.5q24 0 43 4.5t32 9.5q15 6 26 15zM223 58q46 0 78.5 30t32.5 84t-32.5 85t-78.5 31t-78 -31t-32 -85t32 -84t78 -30zM517 290q-38 0 -64.5 -21t-35.5 -60h193q-5 35 -29.5 58
t-63.5 23z" />
    <glyph glyph-name="Racute" unicode="&#x154;" horiz-adv-x="631" 
d="M320 638h-52v15l43 143h96v-15zM334 600q113 0 177.5 -51.5t64.5 -150.5q0 -72 -36.5 -119t-98.5 -68v-4l155 -191v-16h-91l-157 195h-183v-195h-82v600h251zM490 396q0 66 -43 97.5t-115 31.5h-167v-256h175q66 0 108 30.5t42 96.5z" />
    <glyph glyph-name="racute" unicode="&#x155;" horiz-adv-x="298" 
d="M184 419h-52v15l43 143h96v-15zM267 265q-5 2 -12 5q-6 2 -14.5 4t-19.5 2q-15 0 -29.5 -5.5t-26 -15t-18.5 -23.5t-7 -32v-200h-82v346h54l10 -49h4q11 17 35 33.5t66 16.5q17 0 30 -3t22 -6q10 -4 17 -9z" />
    <glyph glyph-name="uni0156" unicode="&#x156;" horiz-adv-x="631" 
d="M263 -90q0 23 15.5 38.5t42.5 15.5q26 0 42.5 -16.5t17.5 -43.5q0 -26 -20 -61l-27 -48h-58l24 40q3 5 6 9t5 6l5 5v3q-25 2 -39 16.5t-14 35.5zM334 600q113 0 177.5 -51.5t64.5 -150.5q0 -72 -36.5 -119t-98.5 -68v-4l155 -191v-16h-91l-157 195h-183v-195h-82v600h251
zM490 396q0 66 -43 97.5t-115 31.5h-167v-256h175q66 0 108 30.5t42 96.5z" />
    <glyph glyph-name="uni0157" unicode="&#x157;" horiz-adv-x="298" 
d="M43 -90q0 23 15.5 38.5t42.5 15.5q26 0 42.5 -16.5t17.5 -43.5q0 -26 -20 -61l-27 -48h-58l24 40q3 5 6 9t5 6l5 5v3q-25 2 -39 16.5t-14 35.5zM267 265q-5 2 -12 5q-6 2 -14.5 4t-19.5 2q-15 0 -29.5 -5.5t-26 -15t-18.5 -23.5t-7 -32v-200h-82v346h54l10 -49h4
q11 17 35 33.5t66 16.5q17 0 30 -3t22 -6q10 -4 17 -9z" />
    <glyph glyph-name="Rcaron" unicode="&#x158;" horiz-adv-x="631" 
d="M395 801h52v-15l-100 -143h-89l-100 143v15h52l93 -99zM334 600q113 0 177.5 -51.5t64.5 -150.5q0 -72 -36.5 -119t-98.5 -68v-4l155 -191v-16h-91l-157 195h-183v-195h-82v600h251zM490 396q0 66 -43 97.5t-115 31.5h-167v-256h175q66 0 108 30.5t42 96.5z" />
    <glyph glyph-name="rcaron" unicode="&#x159;" horiz-adv-x="298" 
d="M266 577h52v-15l-100 -143h-89l-100 143v15h52l93 -99zM267 265q-5 2 -12 5q-6 2 -14.5 4t-19.5 2q-15 0 -29.5 -5.5t-26 -15t-18.5 -23.5t-7 -32v-200h-82v346h54l10 -49h4q11 17 35 33.5t66 16.5q17 0 30 -3t22 -6q10 -4 17 -9z" />
    <glyph glyph-name="Sacute" unicode="&#x15a;" horiz-adv-x="537" 
d="M296 638h-52v15l43 143h96v-15zM87 121q20 -17 47 -29q23 -11 56.5 -20t76.5 -9q76 0 110 26.5t34 68.5q0 19 -7.5 34t-25.5 28t-48.5 25t-76.5 25q-54 15 -93.5 32t-65 37.5t-38 47t-12.5 61.5q0 78 59.5 121.5t165.5 43.5q57 0 97.5 -9t66.5 -20q31 -13 52 -29l-45 -68
q-18 13 -44 24q-22 9 -53.5 17t-73.5 8q-61 0 -99.5 -22.5t-38.5 -64.5q0 -17 7.5 -30t26 -25t49 -23t75.5 -23q59 -16 99 -34.5t65 -41t35.5 -50t10.5 -61.5q0 -37 -13.5 -69t-41.5 -55.5t-72 -37t-104 -13.5q-59 0 -101 11t-70 25q-33 16 -55 37z" />
    <glyph glyph-name="sacute" unicode="&#x15b;" horiz-adv-x="378" 
d="M211 419h-52v15l43 143h96v-15zM60 89q17 -10 36 -17q17 -7 39.5 -12t48.5 -5q79 0 79 42q0 17 -16.5 26t-42 16t-54.5 13.5t-54.5 18.5t-42 30.5t-16.5 49.5q0 44 35.5 73.5t113.5 29.5q37 0 65 -4.5t47 -9.5q22 -6 38 -14l-28 -64q-12 8 -29 14q-14 5 -35.5 10t-48.5 5
q-35 0 -56 -8.5t-21 -30.5q0 -16 17 -24.5t42 -15t55 -13.5t55 -18.5t42 -31t17 -51.5q0 -22 -9 -41t-28.5 -33.5t-49.5 -23t-72 -8.5q-41 0 -69.5 6t-48.5 14q-23 9 -38 20z" />
    <glyph glyph-name="Scedilla" unicode="&#x15e;" horiz-adv-x="537" 
d="M227 -46l16 33q-52 2 -89.5 14t-62.5 25q-29 15 -49 33l45 62q20 -17 47 -29q23 -11 56.5 -20t76.5 -9q76 0 110 26.5t34 68.5q0 19 -7.5 34t-25.5 28t-48.5 25t-76.5 25q-54 15 -93.5 32t-65 37.5t-38 47t-12.5 61.5q0 78 59.5 121.5t165.5 43.5q57 0 97.5 -9t66.5 -20
q31 -13 52 -29l-45 -68q-18 13 -44 24q-22 9 -53.5 17t-73.5 8q-61 0 -99.5 -22.5t-38.5 -64.5q0 -17 7.5 -30t26 -25t49 -23t75.5 -23q59 -16 99 -34.5t65 -41t35.5 -50t10.5 -61.5q0 -36 -12.5 -66.5t-38.5 -54t-66 -37.5t-95 -16l-7 -17q29 0 48 -15.5t19 -47.5t-21 -52
t-61 -20q-20 0 -34 4.5t-24 10.5q-11 6 -19 15l18 32q6 -7 15 -11q8 -4 18 -7t24 -3q41 0 41 32q0 15 -11 23.5t-28 8.5q-5 0 -9 -1t-7 -2l-6 -3z" />
    <glyph glyph-name="scedilla" unicode="&#x15f;" horiz-adv-x="378" 
d="M144 -46l19 39q-34 2 -58.5 8t-41.5 13q-19 8 -32 18l29 57q17 -10 36 -17q17 -7 39.5 -12t48.5 -5q79 0 79 42q0 17 -16.5 26t-42 16t-54.5 13.5t-54.5 18.5t-42 30.5t-16.5 49.5q0 44 35.5 73.5t113.5 29.5q37 0 65 -4.5t47 -9.5q22 -6 38 -14l-28 -64q-12 8 -29 14
q-14 5 -35.5 10t-48.5 5q-35 0 -56 -8.5t-21 -30.5q0 -16 17 -24.5t42 -15t55 -13.5t55 -18.5t42 -31t17 -51.5q0 -42 -32.5 -71t-106.5 -34l-10 -23q29 0 48 -15.5t19 -47.5t-21 -52t-61 -20q-20 0 -34 4.5t-24 10.5q-11 6 -19 15l18 32q6 -7 15 -11q8 -4 18 -7t24 -3
q41 0 41 32q0 15 -11 23.5t-28 8.5q-5 0 -9 -1t-7 -2l-6 -3z" />
    <glyph glyph-name="Scaron" unicode="&#x160;" horiz-adv-x="537" 
d="M359 796h52v-15l-100 -143h-89l-100 143v15h52l93 -99zM87 121q20 -17 47 -29q23 -11 56.5 -20t76.5 -9q76 0 110 26.5t34 68.5q0 19 -7.5 34t-25.5 28t-48.5 25t-76.5 25q-54 15 -93.5 32t-65 37.5t-38 47t-12.5 61.5q0 78 59.5 121.5t165.5 43.5q57 0 97.5 -9t66.5 -20
q31 -13 52 -29l-45 -68q-18 13 -44 24q-22 9 -53.5 17t-73.5 8q-61 0 -99.5 -22.5t-38.5 -64.5q0 -17 7.5 -30t26 -25t49 -23t75.5 -23q59 -16 99 -34.5t65 -41t35.5 -50t10.5 -61.5q0 -37 -13.5 -69t-41.5 -55.5t-72 -37t-104 -13.5q-59 0 -101 11t-70 25q-33 16 -55 37z
" />
    <glyph glyph-name="scaron" unicode="&#x161;" horiz-adv-x="378" 
d="M281 577h52v-15l-100 -143h-89l-100 143v15h52l93 -99zM60 89q17 -10 36 -17q17 -7 39.5 -12t48.5 -5q79 0 79 42q0 17 -16.5 26t-42 16t-54.5 13.5t-54.5 18.5t-42 30.5t-16.5 49.5q0 44 35.5 73.5t113.5 29.5q37 0 65 -4.5t47 -9.5q22 -6 38 -14l-28 -64q-12 8 -29 14
q-14 5 -35.5 10t-48.5 5q-35 0 -56 -8.5t-21 -30.5q0 -16 17 -24.5t42 -15t55 -13.5t55 -18.5t42 -31t17 -51.5q0 -22 -9 -41t-28.5 -33.5t-49.5 -23t-72 -8.5q-41 0 -69.5 6t-48.5 14q-23 9 -38 20z" />
    <glyph glyph-name="uni0162" unicode="&#x162;" horiz-adv-x="527" 
d="M203 -90q0 23 15.5 38.5t42.5 15.5q26 0 42.5 -16.5t17.5 -43.5q0 -26 -20 -61l-27 -48h-58l24 40q3 5 6 9t5 6l5 5v3q-25 2 -39 16.5t-14 35.5zM15 600h497v-75h-208v-525h-82v525h-207v75z" />
    <glyph glyph-name="uni0163" unicode="&#x163;" horiz-adv-x="320" 
d="M112 -90q0 23 15.5 38.5t42.5 15.5q26 0 42.5 -16.5t17.5 -43.5q0 -26 -20 -61l-27 -48h-58l24 40q3 5 6 9t5 6l5 5v3q-25 2 -39 16.5t-14 35.5zM83 346v104h81v-104h129v-66h-129v-136q0 -44 17.5 -63.5t52.5 -19.5q17 0 33 7q7 3 14 7l27 -56q-9 -8 -22 -14
q-11 -5 -27.5 -9t-36.5 -4q-67 0 -103 38t-36 111v139h-67v66h67z" />
    <glyph glyph-name="Tcaron" unicode="&#x164;" horiz-adv-x="527" 
d="M356 801h52v-15l-100 -143h-89l-100 143v15h52l93 -99zM15 600h497v-75h-208v-525h-82v525h-207v75z" />
    <glyph glyph-name="tcaron" unicode="&#x165;" horiz-adv-x="320" 
d="M249 576q0 23 15.5 38.5t42.5 15.5q26 0 42.5 -16.5t17.5 -43.5q0 -26 -20 -61l-27 -48h-58l24 40q3 5 6 9t5 6l5 5v3q-25 2 -39 16.5t-14 35.5zM83 346v104h81v-104h129v-66h-129v-136q0 -44 17.5 -63.5t52.5 -19.5q17 0 33 7q7 3 14 7l27 -56q-9 -8 -22 -14
q-11 -5 -27.5 -9t-36.5 -4q-67 0 -103 38t-36 111v139h-67v66h67z" />
    <glyph glyph-name="Tbar" unicode="&#x166;" horiz-adv-x="532" 
d="M18 600h497v-75h-208v-190h101v-57h-101v-278h-82v278h-100v57h100v190h-207v75z" />
    <glyph glyph-name="tbar" unicode="&#x167;" horiz-adv-x="324" 
d="M86 346v104h81v-104h129v-66h-129v-63h102v-56h-102v-17q0 -44 17.5 -63.5t52.5 -19.5q17 0 33 7q7 3 14 7l27 -56q-9 -8 -22 -14q-11 -5 -27.5 -9t-36.5 -4q-67 0 -103 38t-36 111v20h-65v56h65v63h-67v66h67z" />
    <glyph glyph-name="Utilde" unicode="&#x168;" horiz-adv-x="659" 
d="M330 -14q-60 0 -107.5 19.5t-80.5 55t-50.5 84t-17.5 107.5v348h82v-348q0 -40 11 -74.5t32.5 -59.5t54 -39t76.5 -14q43 0 75.5 14t54.5 39t32.5 59.5t10.5 74.5v348h83v-348q0 -59 -17 -107.5t-50 -84t-80.5 -55t-108.5 -19.5zM399 690q-21 0 -38.5 7t-32.5 15.5
t-29 15.5t-28 7q-18 0 -25 -10t-12 -24l-4 -13l-58 6l5 26q7 32 26 55t59 23q21 0 38 -7t32 -15.5t29 -15.5t28 -7q20 0 27.5 9.5t10.5 23.5l3 13l58 -5l-4 -26q-6 -32 -26 -55t-59 -23z" />
    <glyph glyph-name="utilde" unicode="&#x169;" horiz-adv-x="455" 
d="M399 0h-54l-14 48h-4q-3 -6 -11.5 -15.5t-23.5 -18.5t-37 -15.5t-52 -6.5q-73 0 -112.5 42t-39.5 113v199h82v-188q0 -42 21.5 -70t66.5 -28q23 0 41 7.5t30 20t18.5 27.5t6.5 30v201h82v-346zM301 439q-21 0 -38.5 7t-32.5 15.5t-29 15.5t-28 7q-18 0 -25 -10t-12 -24
l-4 -13l-58 6l5 26q7 32 26 55t59 23q21 0 38 -7t32 -15.5t29 -15.5t28 -7q20 0 27.5 9.5t10.5 23.5l3 13l58 -5l-4 -26q-6 -32 -26 -55t-59 -23z" />
    <glyph glyph-name="Umacron" unicode="&#x16a;" horiz-adv-x="659" 
d="M330 -14q-60 0 -107.5 19.5t-80.5 55t-50.5 84t-17.5 107.5v348h82v-348q0 -40 11 -74.5t32.5 -59.5t54 -39t76.5 -14q43 0 75.5 14t54.5 39t32.5 59.5t10.5 74.5v348h83v-348q0 -59 -17 -107.5t-50 -84t-80.5 -55t-108.5 -19.5zM196 726h267v-52h-267v52z" />
    <glyph glyph-name="umacron" unicode="&#x16b;" horiz-adv-x="455" 
d="M399 0h-54l-14 48h-4q-3 -6 -11.5 -15.5t-23.5 -18.5t-37 -15.5t-52 -6.5q-73 0 -112.5 42t-39.5 113v199h82v-188q0 -42 21.5 -70t66.5 -28q23 0 41 7.5t30 20t18.5 27.5t6.5 30v201h82v-346zM94 495h267v-52h-267v52z" />
    <glyph glyph-name="Uring" unicode="&#x16e;" horiz-adv-x="659" 
d="M330 635q-42 0 -70 26.5t-28 67.5t28 67.5t70 26.5t69 -26.5t27 -67.5t-27 -67.5t-69 -26.5zM373 729q0 20 -11.5 32t-31.5 12t-32.5 -12t-12.5 -32t12.5 -31.5t32.5 -11.5t31.5 11.5t11.5 31.5zM330 -14q-60 0 -107.5 19.5t-80.5 55t-50.5 84t-17.5 107.5v348h82v-348
q0 -40 11 -74.5t32.5 -59.5t54 -39t76.5 -14q43 0 75.5 14t54.5 39t32.5 59.5t10.5 74.5v348h83v-348q0 -59 -17 -107.5t-50 -84t-80.5 -55t-108.5 -19.5z" />
    <glyph glyph-name="uring" unicode="&#x16f;" horiz-adv-x="455" 
d="M226 427q-42 0 -70 26.5t-28 67.5t28 67.5t70 26.5t69 -26.5t27 -67.5t-27 -67.5t-69 -26.5zM269 521q0 20 -11.5 32t-31.5 12t-32.5 -12t-12.5 -32t12.5 -31.5t32.5 -11.5t31.5 11.5t11.5 31.5zM399 0h-54l-14 48h-4q-3 -6 -11.5 -15.5t-23.5 -18.5t-37 -15.5t-52 -6.5
q-73 0 -112.5 42t-39.5 113v199h82v-188q0 -42 21.5 -70t66.5 -28q23 0 41 7.5t30 20t18.5 27.5t6.5 30v201h82v-346z" />
    <glyph glyph-name="Uhungarumlaut" unicode="&#x170;" horiz-adv-x="659" 
d="M330 -14q-60 0 -107.5 19.5t-80.5 55t-50.5 84t-17.5 107.5v348h82v-348q0 -40 11 -74.5t32.5 -59.5t54 -39t76.5 -14q43 0 75.5 14t54.5 39t32.5 59.5t10.5 74.5v348h83v-348q0 -59 -17 -107.5t-50 -84t-80.5 -55t-108.5 -19.5zM272 638h-52v15l43 143h86v-15zM436 638
h-53v15l43 143h87v-15z" />
    <glyph glyph-name="uhungarumlaut" unicode="&#x171;" horiz-adv-x="455" 
d="M399 0h-54l-14 48h-4q-3 -6 -11.5 -15.5t-23.5 -18.5t-37 -15.5t-52 -6.5q-73 0 -112.5 42t-39.5 113v199h82v-188q0 -42 21.5 -70t66.5 -28q23 0 41 7.5t30 20t18.5 27.5t6.5 30v201h82v-346zM164 419h-52v15l43 143h86v-15zM328 419h-53v15l43 143h87v-15z" />
    <glyph glyph-name="Uogonek" unicode="&#x172;" horiz-adv-x="659" 
d="M403 -119q-7 -8 -17 -14q-8 -5 -20.5 -9t-29.5 -4q-37 0 -57 19t-20 51q0 22 9.5 38t23.5 27q-52 6 -92.5 27.5t-68.5 56t-42.5 80t-14.5 99.5v348h82v-348q0 -40 11 -74.5t32.5 -59.5t54 -39t76.5 -14q43 0 75.5 14t54.5 39t32.5 59.5t10.5 74.5v348h83v-348
q0 -56 -16 -103.5t-46 -82.5t-74 -55.5t-101 -23.5q-12 -6 -26.5 -18.5t-14.5 -34.5q0 -34 36 -34q14 0 25 7q5 3 9 7z" />
    <glyph glyph-name="uogonek" unicode="&#x173;" horiz-adv-x="455" 
d="M399 0q-16 -6 -27 -14t-19 -18.5t-8 -25.5q0 -34 36 -34q14 0 25 7q5 3 9 7l25 -33q-7 -8 -17 -14q-8 -5 -20.5 -9t-29.5 -4q-37 0 -57 19t-20 51q0 27 14.5 45t32.5 29l-12 42h-4q-3 -6 -11.5 -15.5t-23.5 -18.5t-37 -15.5t-52 -6.5q-73 0 -112.5 42t-39.5 113v199h82
v-188q0 -42 21.5 -70t66.5 -28q23 0 41 7.5t30 20t18.5 27.5t6.5 30v201h82v-346z" />
    <glyph glyph-name="Wcircumflex" unicode="&#x174;" horiz-adv-x="817" 
d="M408 742l-93 -99h-52v15l100 143h89l100 -143v-15h-52zM384 600h49l117 -397l14 -52h6l15 55l135 394h87l-217 -600h-56l-117 394l-8 25h-5l-7 -25l-119 -394h-53l-217 600h86l137 -394l14 -55h6l15 52z" />
    <glyph glyph-name="wcircumflex" unicode="&#x175;" horiz-adv-x="588" 
d="M295 518l-93 -99h-52v15l100 143h89l100 -143v-15h-52zM12 346h87l78 -223q2 -6 3.5 -12t2.5 -14h7q1 8 2.5 13.5t3.5 12.5l69 223h62l69 -223q2 -7 3 -12.5t2 -13.5h7q1 8 3 14l4 12l78 223h83l-141 -346h-62l-69 211q-6 16 -7 33h-5q-2 -17 -7 -33l-70 -211h-61z" />
    <glyph glyph-name="Ycircumflex" unicode="&#x176;" horiz-adv-x="550" 
d="M277 737l-93 -99h-52v15l100 143h89l100 -143v-15h-52zM452 600h95l-231 -370v-230h-83v229l-230 371h96l157 -254l17 -37h6l18 37z" />
    <glyph glyph-name="ycircumflex" unicode="&#x177;" horiz-adv-x="409" 
d="M147 -192h-86l106 215l-156 323h89l100 -223q2 -6 3.5 -12t2.5 -14h5q1 8 2.5 14t3.5 12l98 223h84zM210 518l-93 -99h-52v15l100 143h89l100 -143v-15h-52z" />
    <glyph glyph-name="Ydieresis" unicode="&#x178;" horiz-adv-x="550" 
d="M138 705q0 19 14 33t33 14t33 -14t14 -33t-14 -33t-33 -14t-33 14t-14 33zM320 705q0 19 14 33t33 14t33 -14t14 -33t-14 -33t-33 -14t-33 14t-14 33zM452 600h95l-231 -370v-230h-83v229l-230 371h96l157 -254l17 -37h6l18 37z" />
    <glyph glyph-name="Zacute" unicode="&#x179;" horiz-adv-x="543" 
d="M282 638h-52v15l43 143h96v-15zM30 21l352 504h-340v75h473v-21l-345 -504h339v-75h-479v21z" />
    <glyph glyph-name="zacute" unicode="&#x17a;" horiz-adv-x="382" 
d="M207 419h-52v15l43 143h96v-15zM33 0v37l202 242h-201v67h316v-34l-202 -245h202v-67h-317z" />
    <glyph glyph-name="Zdotaccent" unicode="&#x17b;" horiz-adv-x="543" 
d="M30 21l352 504h-340v75h473v-21l-345 -504h339v-75h-479v21zM216 734q0 26 16.5 42.5t41.5 16.5q24 0 40.5 -16.5t16.5 -42.5q0 -24 -16.5 -40.5t-40.5 -16.5q-25 0 -41.5 16.5t-16.5 40.5z" />
    <glyph glyph-name="zdotaccent" unicode="&#x17c;" horiz-adv-x="382" 
d="M33 0v37l202 242h-201v67h316v-34l-202 -245h202v-67h-317zM132 510q0 26 16.5 42.5t41.5 16.5q24 0 40.5 -16.5t16.5 -42.5q0 -24 -16.5 -40.5t-40.5 -16.5q-25 0 -41.5 16.5t-16.5 40.5z" />
    <glyph glyph-name="Zcaron" unicode="&#x17d;" horiz-adv-x="543" 
d="M357 795h52v-15l-100 -143h-89l-100 143v15h52l93 -99zM30 21l352 504h-340v75h473v-21l-345 -504h339v-75h-479v21z" />
    <glyph glyph-name="zcaron" unicode="&#x17e;" horiz-adv-x="382" 
d="M286 577h52v-15l-100 -143h-89l-100 143v15h52l93 -99zM33 0v37l202 242h-201v67h316v-34l-202 -245h202v-67h-317z" />
    <glyph glyph-name="uni01EA" unicode="&#x1ea;" horiz-adv-x="706" 
d="M493 -111q-7 -8 -17 -14q-8 -5 -20.5 -9t-29.5 -4q-37 0 -57 19t-20 51q0 17 6.5 30.5t16.5 24.5q-5 -1 -10 -1h-10q-71 0 -128.5 24.5t-98 67t-62.5 99.5t-22 122q0 66 22 123.5t62.5 99.5t98 66.5t128.5 24.5q72 0 130 -24.5t98.5 -66.5t62.5 -99.5t22 -123.5
q0 -54 -15 -102.5t-43 -88t-68.5 -68t-91.5 -42.5q-5 -2 -13 -6t-16 -11t-14 -16.5t-6 -22.5q0 -34 36 -34q14 0 25 7q5 3 9 7zM352 65q52 0 94.5 18.5t72.5 50t46 74t16 91.5t-16 92t-46 75t-72.5 50.5t-94.5 18.5t-94 -18.5t-71.5 -50.5t-45.5 -75t-16 -92t16 -91.5
t45.5 -74t71.5 -50t94 -18.5z" />
    <glyph glyph-name="uni01EB" unicode="&#x1eb;" horiz-adv-x="446" 
d="M324 -111q-7 -8 -17 -14q-8 -5 -20.5 -9t-29.5 -4q-37 0 -57 19t-20 51q0 20 8 35t20 26q-37 2 -69 15.5t-55.5 36.5t-37 55t-13.5 71q0 42 15 75.5t40.5 57.5t60.5 37t74 13t74 -13t61 -37t41 -57.5t15 -75.5q0 -68 -38 -112.5t-97 -59.5l-12 -6t-16.5 -11t-15 -17
t-6.5 -23q0 -34 36 -34q14 0 25 7q5 3 9 7zM223 58q46 0 78.5 30t32.5 84t-32.5 85t-78.5 31t-78 -31t-32 -85t32 -84t78 -30z" />
    <glyph glyph-name="AEacute" unicode="&#x1fc;" horiz-adv-x="912" 
d="M638 638h-52v15l43 143h96v-15zM417 600h457v-75h-363v-193h315v-73h-315v-184h363v-75h-446v98h-273l-67 -98h-102zM205 171h223v301h-9z" />
    <glyph glyph-name="aeacute" unicode="&#x1fd;" horiz-adv-x="682" 
d="M373 419h-52v15l43 143h96v-15zM626 29q-15 -11 -35 -19q-17 -8 -42.5 -13.5t-58.5 -5.5q-48 0 -85.5 15.5t-63.5 44.5q-23 -26 -61.5 -42.5t-94.5 -16.5q-41 0 -71 9t-49 24.5t-28 35.5t-9 42q0 47 38 76.5t107 29.5q30 0 51.5 -4t35.5 -9.5t21 -10.5t9 -6h2v16
q0 43 -24.5 68t-82.5 25q-23 0 -41.5 -4t-32.5 -9q-16 -5 -29 -12l-25 60q17 8 39 15q19 6 45.5 11t58.5 5q52 0 87 -15.5t55 -41.5q24 27 59.5 42t78.5 15q40 0 72 -12.5t54.5 -35.5t34 -55t11.5 -71q0 -3 -0.5 -7t-0.5 -8v-9h-274q5 -51 38.5 -75.5t80.5 -24.5
q24 0 42.5 4t32.5 9q15 6 27 14zM105 105q0 -25 20.5 -40.5t66.5 -15.5q42 0 71.5 17t29.5 40q0 12 -8.5 21.5t-22.5 16t-32 10.5t-38 4q-46 0 -66.5 -14.5t-20.5 -38.5zM479 291q-39 0 -65.5 -21t-34.5 -63h195q-5 35 -29 59.5t-66 24.5z" />
    <glyph glyph-name="Oslashacute" unicode="&#x1fe;" horiz-adv-x="704" 
d="M352 -14q-63 0 -115 19t-91 52l-62 -60l-41 42l62 61q-31 41 -47.5 91.5t-16.5 107.5q0 66 22 123.5t62.5 99.5t98 66.5t128.5 24.5q63 0 114.5 -18.5t91.5 -51.5l54 53l41 -42l-54 -53q32 -41 49 -92.5t17 -109.5q0 -65 -22 -122t-62.5 -99.5t-98.5 -67t-130 -24.5z
M352 65q52 0 94.5 18.5t72.5 50t46 74t16 91.5q0 82 -43 142l-333 -326q29 -23 65.5 -36.5t81.5 -13.5zM125 299q0 -81 41 -140l332 326q-29 23 -65 36.5t-81 13.5q-52 0 -94 -18.5t-71.5 -50.5t-45.5 -75t-16 -92zM378 638h-52v15l43 143h96v-15z" />
    <glyph glyph-name="oslashacute" unicode="&#x1ff;" horiz-adv-x="446" 
d="M415 171q0 -41 -15 -74.5t-41 -56.5t-61 -35.5t-74 -12.5q-69 0 -119 35l-38 -38l-30 30l37 37q-19 22 -29.5 51t-10.5 64q0 42 15 75.5t40.5 57.5t60.5 37t74 13q63 0 113 -33l42 42l30 -30l-40 -39q21 -23 33.5 -54t12.5 -69zM224 58q46 0 78.5 30t32.5 84
q0 20 -5.5 37.5t-14.5 31.5l-160 -161q28 -22 69 -22zM114 172q0 -38 15 -63l159 159q-28 20 -64 20q-46 0 -78 -31t-32 -85zM252 419h-52v15l43 143h96v-15z" />
    <glyph glyph-name="uni0218" unicode="&#x218;" horiz-adv-x="537" 
d="M221 -90q0 23 15.5 38.5t42.5 15.5q26 0 42.5 -16.5t17.5 -43.5q0 -26 -20 -61l-27 -48h-58l24 40q3 5 6 9t5 6l5 5v3q-25 2 -39 16.5t-14 35.5zM87 121q20 -17 47 -29q23 -11 56.5 -20t76.5 -9q76 0 110 26.5t34 68.5q0 19 -7.5 34t-25.5 28t-48.5 25t-76.5 25
q-54 15 -93.5 32t-65 37.5t-38 47t-12.5 61.5q0 78 59.5 121.5t165.5 43.5q57 0 97.5 -9t66.5 -20q31 -13 52 -29l-45 -68q-18 13 -44 24q-22 9 -53.5 17t-73.5 8q-61 0 -99.5 -22.5t-38.5 -64.5q0 -17 7.5 -30t26 -25t49 -23t75.5 -23q59 -16 99 -34.5t65 -41t35.5 -50
t10.5 -61.5q0 -37 -13.5 -69t-41.5 -55.5t-72 -37t-104 -13.5q-59 0 -101 11t-70 25q-33 16 -55 37z" />
    <glyph glyph-name="uni0219" unicode="&#x219;" horiz-adv-x="378" 
d="M135 -90q0 23 15.5 38.5t42.5 15.5q26 0 42.5 -16.5t17.5 -43.5q0 -26 -20 -61l-27 -48h-58l24 40q3 5 6 9t5 6l5 5v3q-25 2 -39 16.5t-14 35.5zM60 89q17 -10 36 -17q17 -7 39.5 -12t48.5 -5q79 0 79 42q0 17 -16.5 26t-42 16t-54.5 13.5t-54.5 18.5t-42 30.5
t-16.5 49.5q0 44 35.5 73.5t113.5 29.5q37 0 65 -4.5t47 -9.5q22 -6 38 -14l-28 -64q-12 8 -29 14q-14 5 -35.5 10t-48.5 5q-35 0 -56 -8.5t-21 -30.5q0 -16 17 -24.5t42 -15t55 -13.5t55 -18.5t42 -31t17 -51.5q0 -22 -9 -41t-28.5 -33.5t-49.5 -23t-72 -8.5q-41 0 -69.5 6
t-48.5 14q-23 9 -38 20z" />
    <glyph glyph-name="uni021A" unicode="&#x21a;" horiz-adv-x="527" 
d="M203 -90q0 23 15.5 38.5t42.5 15.5q26 0 42.5 -16.5t17.5 -43.5q0 -26 -20 -61l-27 -48h-58l24 40q3 5 6 9t5 6l5 5v3q-25 2 -39 16.5t-14 35.5zM15 600h497v-75h-208v-525h-82v525h-207v75z" />
    <glyph glyph-name="uni021B" unicode="&#x21b;" horiz-adv-x="320" 
d="M112 -90q0 23 15.5 38.5t42.5 15.5q26 0 42.5 -16.5t17.5 -43.5q0 -26 -20 -61l-27 -48h-58l24 40q3 5 6 9t5 6l5 5v3q-25 2 -39 16.5t-14 35.5zM83 346v104h81v-104h129v-66h-129v-136q0 -44 17.5 -63.5t52.5 -19.5q17 0 33 7q7 3 14 7l27 -56q-9 -8 -22 -14
q-11 -5 -27.5 -9t-36.5 -4q-67 0 -103 38t-36 111v139h-67v66h67z" />
    <glyph glyph-name="uni0237" unicode="&#x237;" horiz-adv-x="195" 
d="M-23 -119q5 -3 11 -5q12 -5 27 -5q21 0 31 13t10 42v420h83v-428q0 -57 -26 -88t-83 -31q-17 0 -31 3t-24 7q-11 4 -21 11z" />
    <glyph glyph-name="circumflex" unicode="&#x2c6;" horiz-adv-x="329" 
d="M170 518l-93 -99h-52v15l100 143h89l100 -143v-15h-52z" />
    <glyph glyph-name="caron" unicode="&#x2c7;" horiz-adv-x="341" 
d="M262 577h52v-15l-100 -143h-89l-100 143v15h52l93 -99z" />
    <glyph glyph-name="breve" unicode="&#x2d8;" horiz-adv-x="348" 
d="M302 581q0 -26 -9.5 -49.5t-26.5 -41t-41 -28t-53 -10.5t-53 10.5t-41 28t-26.5 41t-9.5 49.5h64q0 -30 18.5 -49t47.5 -19q28 0 47 19.5t19 48.5h64z" />
    <glyph glyph-name="dotaccent" unicode="&#x2d9;" horiz-adv-x="274" 
d="M79 510q0 26 16.5 42.5t41.5 16.5q24 0 40.5 -16.5t16.5 -42.5q0 -24 -16.5 -40.5t-40.5 -16.5q-25 0 -41.5 16.5t-16.5 40.5z" />
    <glyph glyph-name="ring" unicode="&#x2da;" horiz-adv-x="265" 
d="M133 427q-42 0 -70 26.5t-28 67.5t28 67.5t70 26.5t69 -26.5t27 -67.5t-27 -67.5t-69 -26.5zM176 521q0 20 -11.5 32t-31.5 12t-32.5 -12t-12.5 -32t12.5 -31.5t32.5 -11.5t31.5 11.5t11.5 31.5z" />
    <glyph glyph-name="ogonek" unicode="&#x2db;" horiz-adv-x="201" 
d="M177 -111q-7 -8 -17 -14q-8 -5 -20.5 -9t-29.5 -4q-37 0 -57 19t-20 51q0 26 14.5 44.5t32.5 29.5q20 13 47 21l9 -27q-16 -6 -27 -14t-19 -18.5t-8 -25.5q0 -34 36 -34q14 0 25 7q5 3 9 7z" />
    <glyph glyph-name="tilde" unicode="&#x2dc;" horiz-adv-x="430" 
d="M280 439q-21 0 -38.5 7t-32.5 15.5t-29 15.5t-28 7q-18 0 -25 -10t-12 -24l-4 -13l-58 6l5 26q7 32 26 55t59 23q21 0 38 -7t32 -15.5t29 -15.5t28 -7q20 0 27.5 9.5t10.5 23.5l3 13l58 -5l-4 -26q-6 -32 -26 -55t-59 -23z" />
    <glyph glyph-name="hungarumlaut" unicode="&#x2dd;" horiz-adv-x="415" 
d="M101 419h-52v15l43 143h86v-15zM265 419h-53v15l43 143h87v-15z" />
    <glyph glyph-name="uni0326" unicode="&#x326;" horiz-adv-x="214" 
d="M51 -90q0 23 15.5 38.5t42.5 15.5q26 0 42.5 -16.5t17.5 -43.5q0 -26 -20 -61l-27 -48h-58l24 40q3 5 6 9t5 6l5 5v3q-25 2 -39 16.5t-14 35.5z" />
    <glyph glyph-name="Wgrave" unicode="&#x1e80;" horiz-adv-x="817" 
d="M294 781v15h97l42 -143v-15h-52zM384 600h49l117 -397l14 -52h6l15 55l135 394h87l-217 -600h-56l-117 394l-8 25h-5l-7 -25l-119 -394h-53l-217 600h86l137 -394l14 -55h6l15 52z" />
    <glyph glyph-name="wgrave" unicode="&#x1e81;" horiz-adv-x="588" 
d="M12 346h87l78 -223q2 -6 3.5 -12t2.5 -14h7q1 8 2.5 13.5t3.5 12.5l69 223h62l69 -223q2 -7 3 -12.5t2 -13.5h7q1 8 3 14l4 12l78 223h83l-141 -346h-62l-69 211q-6 16 -7 33h-5q-2 -17 -7 -33l-70 -211h-61zM180 562v15h97l42 -143v-15h-52z" />
    <glyph glyph-name="Wacute" unicode="&#x1e82;" horiz-adv-x="817" 
d="M434 638h-52v15l43 143h96v-15zM384 600h49l117 -397l14 -52h6l15 55l135 394h87l-217 -600h-56l-117 394l-8 25h-5l-7 -25l-119 -394h-53l-217 600h86l137 -394l14 -55h6l15 52z" />
    <glyph glyph-name="wacute" unicode="&#x1e83;" horiz-adv-x="588" 
d="M323 419h-52v15l43 143h96v-15zM12 346h87l78 -223q2 -6 3.5 -12t2.5 -14h7q1 8 2.5 13.5t3.5 12.5l69 223h62l69 -223q2 -7 3 -12.5t2 -13.5h7q1 8 3 14l4 12l78 223h83l-141 -346h-62l-69 211q-6 16 -7 33h-5q-2 -17 -7 -33l-70 -211h-61z" />
    <glyph glyph-name="Wdieresis" unicode="&#x1e84;" horiz-adv-x="817" 
d="M269 710q0 19 14 33t33 14t33 -14t14 -33t-14 -33t-33 -14t-33 14t-14 33zM451 710q0 19 14 33t33 14t33 -14t14 -33t-14 -33t-33 -14t-33 14t-14 33zM384 600h49l117 -397l14 -52h6l15 55l135 394h87l-217 -600h-56l-117 394l-8 25h-5l-7 -25l-119 -394h-53l-217 600h86
l137 -394l14 -55h6l15 52z" />
    <glyph glyph-name="wdieresis" unicode="&#x1e85;" horiz-adv-x="588" 
d="M157 483q0 19 14 33t33 14t33 -14t14 -33t-14 -33t-33 -14t-33 14t-14 33zM339 483q0 19 14 33t33 14t33 -14t14 -33t-14 -33t-33 -14t-33 14t-14 33zM12 346h87l78 -223q2 -6 3.5 -12t2.5 -14h7q1 8 2.5 13.5t3.5 12.5l69 223h62l69 -223q2 -7 3 -12.5t2 -13.5h7
q1 8 3 14l4 12l78 223h83l-141 -346h-62l-69 211q-6 16 -7 33h-5q-2 -17 -7 -33l-70 -211h-61z" />
    <glyph glyph-name="Ygrave" unicode="&#x1ef2;" horiz-adv-x="550" 
d="M452 600h95l-231 -370v-230h-83v229l-230 371h96l157 -254l17 -37h6l18 37zM161 782v15h97l42 -143v-15h-52z" />
    <glyph glyph-name="ygrave" unicode="&#x1ef3;" horiz-adv-x="409" 
d="M147 -192h-86l106 215l-156 323h89l100 -223q2 -6 3.5 -12t2.5 -14h5q1 8 2.5 14t3.5 12l98 223h84zM102 562v15h97l42 -143v-15h-52z" />
    <glyph glyph-name="uni1EF8" unicode="&#x1ef8;" horiz-adv-x="550" 
d="M353 651q-21 0 -38.5 7t-32.5 15.5t-29 15.5t-28 7q-18 0 -25 -10t-12 -24l-4 -13l-58 6l5 26q7 32 26 55t59 23q21 0 38 -7t32 -15.5t29 -15.5t28 -7q20 0 27.5 9.5t10.5 23.5l3 13l58 -5l-4 -26q-6 -32 -26 -55t-59 -23zM452 600h95l-231 -370v-230h-83v229l-230 371
h96l157 -254l17 -37h6l18 37z" />
    <glyph glyph-name="uni1EF9" unicode="&#x1ef9;" horiz-adv-x="409" 
d="M147 -192h-86l106 215l-156 323h89l100 -223q2 -6 3.5 -12t2.5 -14h5q1 8 2.5 14t3.5 12l98 223h84zM282 439q-21 0 -38.5 7t-32.5 15.5t-29 15.5t-28 7q-18 0 -25 -10t-12 -24l-4 -13l-58 6l5 26q7 32 26 55t59 23q21 0 38 -7t32 -15.5t29 -15.5t28 -7q20 0 27.5 9.5
t10.5 23.5l3 13l58 -5l-4 -26q-6 -32 -26 -55t-59 -23z" />
    <glyph glyph-name="endash" unicode="&#x2013;" horiz-adv-x="458" 
d="M51 322h356v-68h-356v68z" />
    <glyph glyph-name="emdash" unicode="&#x2014;" horiz-adv-x="721" 
d="M51 322h619v-68h-619v68z" />
    <glyph glyph-name="quoteleft" unicode="&#x2018;" horiz-adv-x="190" 
d="M143 521q0 -23 -14.5 -38t-37.5 -15t-38.5 15.5t-15.5 38.5t5 37t14 31l40 71h56l-36 -64q-5 -9 -11 -15l-5 -5v-4q19 -3 31 -17.5t12 -34.5z" />
    <glyph glyph-name="quoteright" unicode="&#x2019;" horiz-adv-x="190" 
d="M51 607q0 23 14.5 38t37.5 15t38.5 -15.5t15.5 -38.5t-5 -37t-14 -31l-40 -71h-56l36 64q3 5 6 9t5 6l5 5v4q-19 3 -31 17.5t-12 34.5z" />
    <glyph glyph-name="quotesinglbase" unicode="&#x201a;" horiz-adv-x="156" 
d="M25 45q0 23 14.5 38t37.5 15t38.5 -15.5t15.5 -38.5t-5 -37t-14 -31l-40 -71h-56l36 64q3 5 6 9t5 6l5 5v4q-19 3 -31 17.5t-12 34.5z" />
    <glyph glyph-name="quotedblleft" unicode="&#x201c;" horiz-adv-x="374" 
d="M143 521q0 -23 -14.5 -38t-37.5 -15t-38.5 15.5t-15.5 38.5t5 37t14 31l40 71h56l-36 -64q-5 -9 -11 -15l-5 -5v-4q19 -3 31 -17.5t12 -34.5zM327 521q0 -23 -14.5 -38t-37.5 -15t-38.5 15.5t-15.5 38.5t5 37t14 31l40 71h56l-36 -64q-5 -9 -11 -15l-5 -5v-4
q19 -3 31 -17.5t12 -34.5z" />
    <glyph glyph-name="quotedblright" unicode="&#x201d;" horiz-adv-x="365" 
d="M47 607q0 23 14.5 38t37.5 15t38.5 -15.5t15.5 -38.5t-5 -37t-14 -31l-40 -71h-56l36 64q3 5 6 9t5 6l5 5v4q-19 3 -31 17.5t-12 34.5zM222 607q0 23 14.5 38t37.5 15t38.5 -15.5t15.5 -38.5t-5 -37t-14 -31l-40 -71h-56l36 64q3 5 6 9t5 6l5 5v4q-19 3 -31 17.5
t-12 34.5z" />
    <glyph glyph-name="quotedblbase" unicode="&#x201e;" horiz-adv-x="383" 
d="M25 45q0 23 14.5 38t37.5 15t38.5 -15.5t15.5 -38.5t-5 -37t-14 -31l-40 -71h-56l36 64q3 5 6 9t5 6l5 5v4q-19 3 -31 17.5t-12 34.5zM252 45q0 23 14.5 38t37.5 15t38.5 -15.5t15.5 -38.5t-5 -37t-14 -31l-40 -71h-56l36 64q3 5 6 9t5 6l5 5v4q-19 3 -31 17.5t-12 34.5z
" />
    <glyph glyph-name="dagger" unicode="&#x2020;" horiz-adv-x="437" 
d="M32 355h153v245h69v-245h151v-68h-151l-8 -479h-54l-7 479h-153v68z" />
    <glyph glyph-name="daggerdbl" unicode="&#x2021;" horiz-adv-x="472" 
d="M49 426h153v174h69v-174h152v-68h-152v-223h152v-68h-152l-7 -259h-54l-8 259h-153v68h153v223h-153v68z" />
    <glyph glyph-name="bullet" unicode="&#x2022;" horiz-adv-x="303" 
d="M74 173q0 32 22.5 55t55.5 23q32 0 54.5 -23t22.5 -55t-22.5 -54.5t-54.5 -22.5q-33 0 -55.5 22.5t-22.5 54.5z" />
    <glyph glyph-name="ellipsis" unicode="&#x2026;" horiz-adv-x="529" 
d="M25 48q0 23 16 39.5t40 16.5q23 0 39.5 -16.5t16.5 -39.5q0 -24 -16.5 -40.5t-39.5 -16.5q-24 0 -40 16.5t-16 40.5zM208 48q0 23 16.5 39.5t39.5 16.5q24 0 40 -16.5t16 -39.5q0 -24 -16 -40.5t-40 -16.5q-23 0 -39.5 16.5t-16.5 40.5zM392 48q0 23 16 39.5t39 16.5
q24 0 40.5 -16.5t16.5 -39.5q0 -24 -16.5 -40.5t-40.5 -16.5q-23 0 -39 16.5t-16 40.5z" />
    <glyph glyph-name="perthousand" unicode="&#x2030;" horiz-adv-x="988" 
d="M172 613q32 0 57 -12t42.5 -33t26.5 -48t9 -57t-9 -57t-26.5 -48t-42.5 -33.5t-57 -12.5q-33 0 -58.5 12.5t-42.5 33.5t-26 48t-9 57t9 57t26 48t42.5 33t58.5 12zM172 373q32 0 49 25.5t17 64.5q0 40 -17 65t-49 25q-34 0 -50.5 -25t-16.5 -65q0 -39 16.5 -64.5
t50.5 -25.5zM595 565l-469 -564l-50 41l468 564zM500 293q33 0 58 -12t42.5 -33t26.5 -48.5t9 -57.5q0 -29 -9 -56t-26.5 -48t-42.5 -33.5t-58 -12.5q-32 0 -57.5 12.5t-43 33.5t-26.5 48t-9 56q0 30 9 57.5t26.5 48.5t43 33t57.5 12zM500 233q-32 0 -49.5 -25t-17.5 -66
q0 -38 17.5 -63.5t49.5 -25.5q33 0 49.5 25.5t16.5 63.5q0 41 -16.5 66t-49.5 25zM820 233q-32 0 -49.5 -25t-17.5 -66q0 -38 17.5 -63.5t49.5 -25.5q33 0 49.5 25.5t16.5 63.5q0 41 -16.5 66t-49.5 25zM820 293q33 0 58 -12t42.5 -33t26.5 -48.5t9 -57.5q0 -29 -9 -56
t-26.5 -48t-42.5 -33.5t-58 -12.5q-32 0 -57.5 12.5t-43 33.5t-26.5 48t-9 56q0 30 9 57.5t26.5 48.5t43 33t57.5 12z" />
    <glyph glyph-name="guilsinglleft" unicode="&#x2039;" horiz-adv-x="249" 
d="M36 181l106 155h70v-8l-104 -153v-5l104 -155v-8h-70l-106 155v19z" />
    <glyph glyph-name="guilsinglright" unicode="&#x203a;" horiz-adv-x="249" 
d="M213 162l-106 -155h-70v8l103 155v5l-103 153v8h70l106 -155v-19z" />
    <glyph glyph-name="fraction" unicode="&#x2044;" horiz-adv-x="180" 
d="M-165 38l469 564l43 -33l-470 -564z" />
    <glyph glyph-name="Euro" unicode="&#x20ac;" horiz-adv-x="596" 
d="M417 196h-210q19 -57 61.5 -91t111.5 -34q31 0 54.5 8t39.5 19q18 11 32 27l48 -62q-17 -20 -43 -36q-22 -14 -54.5 -24.5t-77.5 -10.5q-55 0 -98.5 15.5t-75.5 43t-54 64.5t-33 81h-78v63h67q-3 19 -3 41q0 9 0.5 18.5t1.5 19.5h-66v63h77q11 44 32.5 82t54 66t76.5 44
t99 16q45 0 78 -11t55 -25q26 -16 43 -35l-49 -63q-14 15 -32 27q-16 10 -39.5 18.5t-54.5 8.5q-69 0 -112 -35.5t-62 -92.5h211v-63h-224q-1 -7 -1.5 -17.5t-0.5 -20.5q0 -11 0.5 -22.5t1.5 -18.5h224v-63z" />
    <glyph glyph-name="trademark" unicode="&#x2122;" horiz-adv-x="739" 
d="M351 281v319h16l142 -134l144 134h16v-319h-56v213l-97 -92h-13l-96 92v-213h-56zM290 551h-99v-270h-56v270h-100v49h255v-49z" />
    <glyph glyph-name="minus" unicode="&#x2212;" horiz-adv-x="505" 
d="M54 332h393v-68h-393v68z" />
    <glyph glyph-name="approxequal" unicode="&#x2248;" horiz-adv-x="493" 
d="M324 170q-24 0 -43.5 7t-36.5 15.5t-32 15.5t-30 7q-21 0 -29 -10t-13 -23l-3 -14l-71 6l6 33q8 32 30.5 54.5t67.5 22.5q23 0 42.5 -7t36.5 -15.5t32.5 -15.5t30.5 -7q20 0 28 10t13 24l4 13l70 -6l-6 -33q-7 -32 -29.5 -54.5t-67.5 -22.5zM324 362q-24 0 -43.5 7
t-36.5 15.5t-32 15.5t-30 7q-21 0 -29 -10t-13 -24l-3 -13l-71 6l6 33q8 32 30.5 54.5t67.5 22.5q23 0 42.5 -7t36.5 -15.5t32.5 -15.5t30.5 -7q20 0 28 10t13 23l4 14l70 -6l-6 -33q-7 -32 -29.5 -54.5t-67.5 -22.5z" />
    <glyph glyph-name="notequal" unicode="&#x2260;" horiz-adv-x="482" 
d="M57 426h201l44 115l58 -20l-37 -95h102v-67h-127l-57 -148h184v-68h-210l-42 -112l-58 20l35 92h-93v68h119l56 148h-175v67z" />
    <glyph glyph-name="uniF6C3" unicode="&#xf6c3;" horiz-adv-x="214" 
d="M51 -90q0 23 15.5 38.5t42.5 15.5q26 0 42.5 -16.5t17.5 -43.5q0 -26 -20 -61l-27 -48h-58l24 40q3 5 6 9t5 6l5 5v3q-25 2 -39 16.5t-14 35.5z" />
    <glyph glyph-name="uniF8FF" unicode="&#xf8ff;" horiz-adv-x="1209" 
d="M576 486q0 22 14.5 36.5t36.5 14.5t36.5 -14.5t14.5 -36.5t-14.5 -36.5t-36.5 -14.5t-36.5 14.5t-14.5 36.5zM83 225q0 55 1 103t3 83q2 41 4 76h83q2 -35 4 -76q2 -35 3 -83t1 -103h-99zM578 225q0 77 3 122h-51l2 -54q1 -1 3 -2t10 -1t12 2q2 1 3 2v-62q-3 -3 -10 -6
q-6 -2 -17 -4t-28 -2q-70 0 -70 55q0 8 0.5 19.5t1 22.5t1 19.5t0.5 10.5h-18v66l99 25l1 -14h148q2 -18 4 -45q2 -24 3.5 -61.5t1.5 -92.5h-99zM273 221q-35 0 -55.5 23t-20.5 71q0 54 26.5 83.5t87.5 29.5q51 0 75.5 -25.5t25.5 -71.5v-106h-70l-6 51q-5 -26 -19 -40.5
t-44 -14.5zM813 225q0 29 1 46t1 34q0 22 -13 22q-15 0 -15 -22q0 -17 1.5 -34t1.5 -46h-95q0 55 1 92.5t3 61.5q2 27 4 45h67l2 -22q1 -10 2 -20.5t1 -20.5q0 2 2 13t9 23t20.5 21.5t35.5 9.5q35 0 48.5 -20.5t15.5 -67.5l2 -115h-95zM1126 320q0 -44 -25 -71.5t-79 -27.5
q-53 0 -76.5 28.5t-23.5 70.5q0 22 4.5 41.5t16 34.5t31 23.5t49.5 8.5q32 0 52 -8.5t31.5 -23.5t15.5 -34.5t4 -41.5zM325 312q0 22 -19 22t-19 -22q0 -25 19 -25t19 25zM1042 312q0 22 -19 22q-17 0 -17 -22q0 -25 17 -25q19 0 19 25zM443 198q2 -16 4 -34q2 -17 3.5 -39
t1.5 -49q0 -61 -29 -89.5t-96 -28.5q-23 0 -37.5 2t-22.5 5q-10 3 -15 7v70q5 -4 13 -7q7 -3 17.5 -5t26.5 -2q17 0 26 3.5t14 8.5t6 12q-4 -3 -9 -5q-12 -5 -32 -5q-75 0 -75 70v10h-46l3 -54q1 -1 3 -2t9 -1q8 0 12 2q2 1 3 2v-61q-3 -3 -10 -6q-6 -2 -17 -4t-29 -2
q-68 0 -68 53q0 8 0.5 19t1 21.5t1 19.5t0.5 13h-15v67l97 24l-1 -14l148 -1v-99q0 -13 2 -17.5t9 -4.5q8 0 11.5 4.5t3.5 17.5v99h86zM611 202q31 0 48.5 -23.5t17.5 -69.5q0 -57 -27.5 -85t-86.5 -28v-8q0 -5 0.5 -11t0.5 -14h-99q0 54 1 97t3 74q2 36 4 64h65
q1 -13 3 -24q1 -10 2 -20.5t1 -18.5q0 2 3 13t10.5 23t20 21.5t33.5 9.5zM892 107q0 -13 -2 -23q-1 -4 -1 -7h-103q3 -4 8 -8q10 -7 33 -7q21 0 34 5q7 2 12 5v-63q-5 -4 -14 -7q-8 -2 -20.5 -4t-30.5 -2q-59 0 -88 26t-29 71q0 54 27 81.5t78 27.5q45 0 70.5 -25t25.5 -70z
M815 91q3 22 -14 22q-19 0 -19 -22h33zM558 60q8 1 15 5q6 3 11 9.5t5 17.5q0 18 -17 18q-8 0 -13 -6t-5 -21q0 -8 2 -16q1 -4 2 -7zM896 11q0 18 19 18q8 0 13 -5t5 -13t-5 -13.5t-13 -5.5q-19 0 -19 19zM900 11q0 -7 4.5 -11t10.5 -4q5 0 9.5 4t4.5 11q0 6 -4.5 10.5
t-9.5 4.5q-6 0 -10.5 -4.5t-4.5 -10.5zM923 2h-5l-3 7h-4v-7h-4v19h9q8 0 8 -6t-6 -6zM916 12q4 0 4 4q0 1 -5 1h-4v-5h5z" />
    <glyph glyph-name="uniFB01" unicode="&#xfb01;" horiz-adv-x="547" 
d="M449 478q-21 0 -35.5 14.5t-14.5 35.5t14.5 36t35.5 15t36 -15t15 -36t-15 -35.5t-36 -14.5zM408 346h82v-346h-82v346zM178 282v-282h-81v282h-80v64h80v147q0 89 40 131t110 42q35 0 55.5 -8.5t22.5 -9.5l-21 -70q-7 3 -15 6q-7 2 -15 4t-16 2q-41 0 -60.5 -23
t-19.5 -74v-147h122v-64h-122z" />
    <glyph glyph-name="uniFB02" unicode="&#xfb02;" horiz-adv-x="540" 
d="M399 668h82v-668h-82v668zM178 282v-282h-81v282h-80v64h80v147q0 89 40 131t110 42q35 0 55.5 -8.5t22.5 -9.5l-21 -70q-7 3 -15 6q-7 2 -15 4t-16 2q-41 0 -60.5 -23t-19.5 -74v-147h122v-64h-122z" />
    <glyph glyph-name="glyph342" horiz-adv-x="768" 
d="M165 0h-82v600h82v-600zM370 100q14 -10 31 -17q14 -7 34 -12t43 -5q63 0 96.5 34t33.5 112v388h83v-405q0 -98 -51.5 -153.5t-154.5 -55.5q-37 0 -65 7t-47.5 16t-30 17t-11.5 9zM150 638h-52v15l43 143h96v-15zM675 638h-52v15l43 143h96v-15z" />
    <glyph glyph-name="glyph345" horiz-adv-x="526" 
d="M218 -46l23 46h-19v525h-207v75h497v-75h-208v-525h-19l-14 -30q29 0 48 -15.5t19 -47.5t-21 -52t-61 -20q-20 0 -34 4.5t-24 10.5q-11 6 -19 15l18 32q6 -7 15 -11q8 -4 18 -7t24 -3q41 0 41 32q0 15 -11 23.5t-28 8.5q-5 0 -9 -1t-7 -2l-6 -3z" />
    <glyph glyph-name="glyph346" horiz-adv-x="320" 
d="M151 -46l22 44q-44 12 -67 48t-23 95v139h-67v66h67v104h81v-104h129v-66h-129v-136q0 -44 17.5 -63.5t52.5 -19.5q17 0 33 7q7 3 14 7l27 -56q-9 -8 -22 -14q-11 -5 -27.5 -9t-36.5 -4h-8l-10 -22q29 0 48 -15.5t19 -47.5t-21 -52t-61 -20q-20 0 -34 4.5t-24 10.5
q-11 6 -19 15l18 32q6 -7 15 -11q8 -4 18 -7t24 -3q41 0 41 32q0 15 -11 23.5t-28 8.5q-5 0 -9 -1t-7 -2l-6 -3z" />
    <glyph glyph-name="glyph348" horiz-adv-x="448" 
d="M58 346h82v-346h-82v346zM236 -123q5 -3 10 -5t11 -3t13 -1q40 0 40 50v428h83v-431q0 -56 -24 -86t-80 -30q-16 0 -28.5 2.5t-20.5 5.5q-11 4 -18 9zM376 419h-52v15l43 143h96v-15zM124 419h-52v15l43 143h96v-15z" />
    <glyph glyph-name="glyph349" horiz-adv-x="198" 
d="M99 478q-21 0 -35.5 14.5t-14.5 35.5t14.5 36t35.5 15t36 -15t15 -36t-15 -35.5t-36 -14.5zM58 346h82v-346h-82v346z" />
    </font>
</defs>
</svg>
